<?xml version="1.0" encoding="UTF-8"?>
<!DOCTYPE svg PUBLIC "-//W3C//DTD SVG 1.1//EN" "http://www.w3.org/Graphics/SVG/1.1/DTD/svg11.dtd">
<svg xmlns="http://www.w3.org/2000/svg" version="1.1" width="334px" height="181px" style="shape-rendering:geometricPrecision; text-rendering:geometricPrecision; image-rendering:optimizeQuality; fill-rule:evenodd; clip-rule:evenodd" xmlns:xlink="http://www.w3.org/1999/xlink">
<g><path style="opacity:1" fill="#f6f6f6" d="M -0.5,-0.5 C 110.833,-0.5 222.167,-0.5 333.5,-0.5C 333.5,59.8333 333.5,120.167 333.5,180.5C 222.167,180.5 110.833,180.5 -0.5,180.5C -0.5,120.167 -0.5,59.8333 -0.5,-0.5 Z"/></g>
<g><path style="opacity:1" fill="#66aacd" d="M 86.5,55.5 C 87.3339,54.2521 88.6672,53.5854 90.5,53.5C 94.3026,55.6705 96.6359,54.6705 97.5,50.5C 92.3077,50.0912 87.3077,50.7579 82.5,52.5C 84.2214,50.3057 86.5547,49.139 89.5,49C 92.1667,48.3333 94.8333,48.3333 97.5,49C 99.8155,51.4755 99.4822,53.8089 96.5,56C 94.5104,55.8621 92.5104,55.3621 90.5,54.5C 89.1508,54.8457 87.8175,55.179 86.5,55.5 Z"/></g>
<g><path style="opacity:1" fill="#41b3f4" d="M 86.5,55.5 C 85.5,56.1667 84.5,56.8333 83.5,57.5C 82.5178,58.1408 81.5178,58.8075 80.5,59.5C 80.1667,59.1667 79.8333,58.8333 79.5,58.5C 81.264,56.8704 82.264,54.8704 82.5,52.5C 87.3077,50.7579 92.3077,50.0912 97.5,50.5C 96.6359,54.6705 94.3026,55.6705 90.5,53.5C 88.6672,53.5854 87.3339,54.2521 86.5,55.5 Z"/></g>
<g><path style="opacity:1" fill="#68a4cb" d="M 52.5,65.5 C 51.4479,63.744 49.7812,63.0773 47.5,63.5C 37.3142,62.2545 26.9808,62.2545 16.5,63.5C 18.8766,62.1127 21.5432,61.2794 24.5,61C 39.3611,60.1692 54.0278,61.5025 68.5,65C 63.1771,65.4994 57.8437,65.666 52.5,65.5 Z"/></g>
<g><path style="opacity:1" fill="#5cacd8" d="M 82.5,52.5 C 82.264,54.8704 81.264,56.8704 79.5,58.5C 79.8333,58.8333 80.1667,59.1667 80.5,59.5C 81.5178,58.8075 82.5178,58.1408 83.5,57.5C 82.342,60.9889 81.0086,64.3223 79.5,67.5C 80.2793,64.9253 80.1127,62.592 79,60.5C 78.2411,62.0629 77.0744,63.0629 75.5,63.5C 76.1898,58.7301 78.5231,55.0635 82.5,52.5 Z"/></g>
<g><path style="opacity:1" fill="#3ab5fa" d="M 47.5,63.5 C 44.5,63.5 41.5,63.5 38.5,63.5C 38.719,64.675 38.3857,65.675 37.5,66.5C 36.5832,65.8728 35.5832,65.5394 34.5,65.5C 32.0521,64.5269 29.3854,64.1936 26.5,64.5C 25.3814,70.9745 24.2148,70.9745 23,64.5C 22.3333,65.8333 21.6667,65.8333 21,64.5C 20.7293,66.4238 19.896,68.4238 18.5,70.5C 17.5661,73.1152 15.8994,73.7818 13.5,72.5C 12.3691,70.9255 12.2025,69.2588 13,67.5C 14.4813,66.5291 15.3146,65.1958 15.5,63.5C 15.8333,63.5 16.1667,63.5 16.5,63.5C 26.9808,62.2545 37.3142,62.2545 47.5,63.5 Z"/></g>
<g><path style="opacity:1" fill="#65abd2" d="M 169.5,69.5 C 174.5,69.5 179.5,69.5 184.5,69.5C 184.5,70.8333 184.5,72.1667 184.5,73.5C 182.833,73.5 181.167,73.5 179.5,73.5C 179.5,78.5 179.5,83.5 179.5,88.5C 177.5,88.5 175.5,88.5 173.5,88.5C 173.5,83.5 173.5,78.5 173.5,73.5C 172.167,73.5 170.833,73.5 169.5,73.5C 169.5,72.1667 169.5,70.8333 169.5,69.5 Z"/></g>
<g><path style="opacity:1" fill="#5bacdb" d="M 96.5,75.5 C 95.8386,74.2825 95.1719,72.9492 94.5,71.5C 93.914,71.7093 93.414,72.0426 93,72.5C 92.8762,74.9357 93.3762,77.269 94.5,79.5C 93.2502,79.4226 92.4169,78.756 92,77.5C 91.0561,74.6529 91.5561,72.1529 93.5,70C 96.8333,69.3333 100.167,69.3333 103.5,70C 104.711,71.1131 104.711,72.2798 103.5,73.5C 101.925,74.446 100.258,74.446 98.5,73.5C 97.2867,73.7472 96.62,74.4138 96.5,75.5 Z"/></g>
<g><path style="opacity:1" fill="#61a5ce" d="M 290.5,69.5 C 290.5,74.5 290.5,79.5 290.5,84.5C 292.833,84.5 295.167,84.5 297.5,84.5C 298.434,85.5676 298.768,86.901 298.5,88.5C 294.167,88.5 289.833,88.5 285.5,88.5C 285.5,82.1667 285.5,75.8333 285.5,69.5C 287.167,69.5 288.833,69.5 290.5,69.5 Z"/></g>
<g><path style="opacity:1" fill="#659fc1" d="M 191.5,69.5 C 191.5,69.8333 191.5,70.1667 191.5,70.5C 190.167,70.5 188.833,70.5 187.5,70.5C 187.5,76.1667 187.5,81.8333 187.5,87.5C 188.833,87.5 190.167,87.5 191.5,87.5C 190.432,88.4345 189.099,88.7678 187.5,88.5C 186.51,82.3554 186.177,76.0221 186.5,69.5C 188.167,69.5 189.833,69.5 191.5,69.5 Z"/></g>
<g><path style="opacity:1" fill="#92a4af" d="M 54.5,71.5 C 58.1419,72.0804 61.8086,72.5804 65.5,73C 62.3812,74.4051 59.0479,74.9051 55.5,74.5C 55.4431,73.391 55.1098,72.391 54.5,71.5 Z"/></g>
<g><path style="opacity:1" fill="#3fb4f6" d="M 79.5,67.5 C 79.5,68.8333 79.5,70.1667 79.5,71.5C 78.8333,73.5 78.1667,75.5 77.5,77.5C 76.8334,85.6763 76.1667,94.0096 75.5,102.5C 75.0894,101.738 74.9227,100.738 75,99.5C 73.692,100.151 72.8586,99.4846 72.5,97.5C 74.3847,87.0186 75.3847,76.352 75.5,65.5C 75.5,64.8333 75.5,64.1667 75.5,63.5C 77.0744,63.0629 78.2411,62.0629 79,60.5C 80.1127,62.592 80.2793,64.9253 79.5,67.5 Z"/></g>
<g><path style="opacity:1" fill="#61a7d1" d="M 52.5,66.5 C 53.5375,67.9303 54.2041,69.597 54.5,71.5C 55.1098,72.391 55.4431,73.391 55.5,74.5C 55.7713,76.3117 56.438,77.9783 57.5,79.5C 66.5717,81.6744 66.5717,82.6744 57.5,82.5C 55.58,81.9348 53.9133,80.9348 52.5,79.5C 53.2389,79.631 53.9056,79.4643 54.5,79C 52.9787,74.1932 49.9787,73.1932 45.5,76C 46.3366,77.0113 46.67,78.1779 46.5,79.5C 45.8485,78.9094 45.1818,78.2427 44.5,77.5C 43.8933,77.6236 43.56,77.9569 43.5,78.5C 41.8863,76.9254 39.8863,76.2587 37.5,76.5C 39.8766,75.1127 42.5432,74.2794 45.5,74C 44.944,73.6174 44.6107,73.1174 44.5,72.5C 46.5,72.5 48.5,72.5 50.5,72.5C 50.5674,71.0413 50.2341,69.7079 49.5,68.5C 50.9986,69.6782 51.9986,71.3449 52.5,73.5C 53.0574,71.2825 53.0574,68.9491 52.5,66.5 Z"/></g>
<g><path style="opacity:1" fill="#50afe7" d="M 15.5,63.5 C 15.3146,65.1958 14.4813,66.5291 13,67.5C 12.2025,69.2588 12.3691,70.9255 13.5,72.5C 15.8994,73.7818 17.5661,73.1152 18.5,70.5C 19.896,68.4238 20.7293,66.4238 21,64.5C 21.6667,65.8333 22.3333,65.8333 23,64.5C 24.2148,70.9745 25.3814,70.9745 26.5,64.5C 29.3854,64.1936 32.0521,64.5269 34.5,65.5C 35.5832,65.5394 36.5832,65.8728 37.5,66.5C 38.3857,65.675 38.719,64.675 38.5,63.5C 41.5,63.5 44.5,63.5 47.5,63.5C 49.7812,63.0773 51.4479,63.744 52.5,65.5C 52.5,65.8333 52.5,66.1667 52.5,66.5C 53.0574,68.9491 53.0574,71.2825 52.5,73.5C 51.9986,71.3449 50.9986,69.6782 49.5,68.5C 48.9717,67.2794 48.305,66.1127 47.5,65C 44.7728,64.1816 42.1062,64.3483 39.5,65.5C 41.434,67.7243 43.1006,70.0576 44.5,72.5C 44.6107,73.1174 44.944,73.6174 45.5,74C 42.5432,74.2794 39.8766,75.1127 37.5,76.5C 34.9744,78.2017 35.1411,79.8683 38,81.5C 40.4479,81.3005 42.2812,80.3005 43.5,78.5C 43.56,77.9569 43.8933,77.6236 44.5,77.5C 45.1818,78.2427 45.8485,78.9094 46.5,79.5C 48.5,79.5 50.5,79.5 52.5,79.5C 53.9133,80.9348 55.58,81.9348 57.5,82.5C 54.1667,82.5 50.8333,82.5 47.5,82.5C 47.7373,83.791 47.404,84.791 46.5,85.5C 44.2436,84.5615 41.9103,84.5615 39.5,85.5C 36.3201,85.6614 33.6535,86.6614 31.5,88.5C 30.3951,89.6005 29.0618,90.2671 27.5,90.5C 26.8501,90.8039 26.1835,91.1373 25.5,91.5C 24.3777,90.3698 23.0443,89.7031 21.5,89.5C 17.1079,85.7316 13.9412,81.0649 12,75.5C 11.3333,72.5 11.3333,69.5 12,66.5C 13.0391,65.2899 14.2058,64.2899 15.5,63.5 Z"/></g>
<g><path style="opacity:1" fill="#f0f6f8" d="M 18.5,70.5 C 19.4584,70.0472 20.2917,69.3805 21,68.5C 23.0176,70.3501 24.8509,72.3501 26.5,74.5C 21.355,77.9277 18.6883,76.5944 18.5,70.5 Z"/></g>
<g><path style="opacity:1" fill="#eaf2f3" d="M 49.5,68.5 C 50.2341,69.7079 50.5674,71.0413 50.5,72.5C 48.5,72.5 46.5,72.5 44.5,72.5C 43.1006,70.0576 41.434,67.7243 39.5,65.5C 42.1062,64.3483 44.7728,64.1816 47.5,65C 48.305,66.1127 48.9717,67.2794 49.5,68.5 Z"/></g>
<g><path style="opacity:1" fill="#f0f6f5" d="M 34.5,65.5 C 35.8231,67.4714 37.1565,69.4714 38.5,71.5C 36.9563,73.4461 34.9563,73.9461 32.5,73C 30.8333,70.6667 29.1667,68.3333 27.5,66C 29.8098,65.5034 32.1432,65.3367 34.5,65.5 Z"/></g>
<g><path style="opacity:1" fill="#4bafed" d="M 96.5,75.5 C 102.715,76.1994 105.215,79.5328 104,85.5C 103.617,86.056 103.117,86.3893 102.5,86.5C 100.144,87.5751 97.8111,87.5751 95.5,86.5C 96.7287,85.7189 98.062,85.2189 99.5,85C 100.774,84.0228 100.774,83.1894 99.5,82.5C 97.4348,82.047 95.7682,81.047 94.5,79.5C 93.3762,77.269 92.8762,74.9357 93,72.5C 93.414,72.0426 93.914,71.7093 94.5,71.5C 95.1719,72.9492 95.8386,74.2825 96.5,75.5 Z"/></g>
<g><path style="opacity:1" fill="#bdd9ee" d="M 290.5,69.5 C 291.486,73.97 291.819,78.6367 291.5,83.5C 293.735,83.2053 295.735,83.5386 297.5,84.5C 295.167,84.5 292.833,84.5 290.5,84.5C 290.5,79.5 290.5,74.5 290.5,69.5 Z"/></g>
<g><path style="opacity:1" fill="#ebf5f6" d="M 37.5,76.5 C 39.8863,76.2587 41.8863,76.9254 43.5,78.5C 42.2812,80.3005 40.4479,81.3005 38,81.5C 35.1411,79.8683 34.9744,78.2017 37.5,76.5 Z"/></g>
<g><path style="opacity:1" fill="#3db5f8" d="M 170.5,70.5 C 174.555,70.1758 178.555,70.5091 182.5,71.5C 181.311,72.4287 179.978,72.762 178.5,72.5C 178.5,76.8333 178.5,81.1667 178.5,85.5C 177.5,85.5 176.5,85.5 175.5,85.5C 175.942,81.0641 175.942,76.7307 175.5,72.5C 173.219,72.9227 171.552,72.256 170.5,70.5 Z"/></g>
<g><path style="opacity:1" fill="#44b3f1" d="M 191.5,70.5 C 191.5,76.1667 191.5,81.8333 191.5,87.5C 190.167,87.5 188.833,87.5 187.5,87.5C 187.5,81.8333 187.5,76.1667 187.5,70.5C 188.833,70.5 190.167,70.5 191.5,70.5 Z"/></g>
<g><path style="opacity:1" fill="#f1f6f5" d="M 52.5,79.5 C 50.5,79.5 48.5,79.5 46.5,79.5C 46.67,78.1779 46.3366,77.0113 45.5,76C 49.9787,73.1932 52.9787,74.1932 54.5,79C 53.9056,79.4643 53.2389,79.631 52.5,79.5 Z"/></g>
<g><path style="opacity:1" fill="#59abd9" d="M 154.5,69.5 C 153.545,75.4093 153.211,81.4093 153.5,87.5C 154.5,87.5 155.5,87.5 156.5,87.5C 156.46,84.1194 156.793,80.7861 157.5,77.5C 159.346,77.7778 160.68,77.1112 161.5,75.5C 160.68,73.8888 159.346,73.2222 157.5,73.5C 158.919,72.5489 160.585,72.2155 162.5,72.5C 162.5,74.5 162.5,76.5 162.5,78.5C 163.5,78.5 164.5,78.5 165.5,78.5C 165.077,79.2646 164.743,80.0979 164.5,81C 165.701,83.2339 167.035,85.4006 168.5,87.5C 163.39,89.7341 160.39,88.0674 159.5,82.5C 159.44,81.9569 159.107,81.6236 158.5,81.5C 157.526,83.7427 157.192,86.076 157.5,88.5C 155.833,88.5 154.167,88.5 152.5,88.5C 152.5,85.5 152.5,82.5 152.5,79.5C 151.931,75.6707 152.598,72.3373 154.5,69.5 Z"/></g>
<g><path style="opacity:1" fill="#f1f5f7" d="M 26.5,79.5 C 28.1992,79.3398 29.8659,79.5065 31.5,80C 32.0219,80.5613 32.3552,81.228 32.5,82C 30.3162,84.2611 27.6495,85.7611 24.5,86.5C 23.376,85.086 22.376,83.586 21.5,82C 23.3146,81.2432 24.9812,80.4098 26.5,79.5 Z"/></g>
<g><path style="opacity:1" fill="#48b0ee" d="M 114.5,70.5 C 115.61,73.8117 116.944,77.145 118.5,80.5C 119.107,80.3764 119.44,80.0431 119.5,79.5C 121.256,80.5521 121.923,82.2188 121.5,84.5C 121.5,84.8333 121.5,85.1667 121.5,85.5C 120.844,86.2778 120.011,86.9444 119,87.5C 117.285,86.3955 115.785,85.0622 114.5,83.5C 114.011,82.0048 113.345,80.6715 112.5,79.5C 111.527,81.9479 111.194,84.6146 111.5,87.5C 110.5,87.5 109.5,87.5 108.5,87.5C 108.5,81.8333 108.5,76.1667 108.5,70.5C 110.5,70.5 112.5,70.5 114.5,70.5 Z"/></g>
<g><path style="opacity:1" fill="#63a1c9" d="M 114.5,70.5 C 112.5,70.5 110.5,70.5 108.5,70.5C 108.5,76.1667 108.5,81.8333 108.5,87.5C 109.5,87.5 110.5,87.5 111.5,87.5C 111.194,84.6146 111.527,81.9479 112.5,79.5C 112.5,82.5 112.5,85.5 112.5,88.5C 110.833,88.5 109.167,88.5 107.5,88.5C 107.5,82.1667 107.5,75.8333 107.5,69.5C 110.059,69.1984 112.393,69.5318 114.5,70.5 Z"/></g>
<g><path style="opacity:1" fill="#60a5cb" d="M 121.5,84.5 C 121.923,82.2188 121.256,80.5521 119.5,79.5C 119.928,76.2154 120.928,73.2154 122.5,70.5C 124.607,69.5318 126.941,69.1984 129.5,69.5C 129.5,75.8333 129.5,82.1667 129.5,88.5C 127.833,88.5 126.167,88.5 124.5,88.5C 124.665,84.8183 124.499,81.1516 124,77.5C 123.61,80.1042 122.776,82.4375 121.5,84.5 Z"/></g>
<g><path style="opacity:1" fill="#41b2f5" d="M 122.5,70.5 C 124.5,70.5 126.5,70.5 128.5,70.5C 128.666,76.1764 128.499,81.8431 128,87.5C 125.723,84.3014 124.89,80.6348 125.5,76.5C 124.5,76.5 123.5,76.5 122.5,76.5C 122.5,74.5 122.5,72.5 122.5,70.5 Z"/></g>
<g><path style="opacity:1" fill="#5cabdc" d="M 145.5,73.5 C 146.338,73.8417 146.672,74.5084 146.5,75.5C 148.232,79.6973 149.565,84.0307 150.5,88.5C 148.833,88.5 147.167,88.5 145.5,88.5C 144.596,87.791 144.263,86.791 144.5,85.5C 142.167,85.5 139.833,85.5 137.5,85.5C 137.5,86.5 137.5,87.5 137.5,88.5C 135.5,88.5 133.5,88.5 131.5,88.5C 133.023,82.428 134.857,76.428 137,70.5C 139.401,69.3977 141.901,69.231 144.5,70C 145.337,71.0113 145.67,72.1779 145.5,73.5 Z"/></g>
<g><path style="opacity:1" fill="#3db6f9" d="M 145.5,73.5 C 146.093,78.2721 147.093,82.9388 148.5,87.5C 147.5,87.5 146.5,87.5 145.5,87.5C 145.5,86.1667 145.5,84.8333 145.5,83.5C 142.425,83.7488 141.758,82.4155 143.5,79.5C 143.66,77.6455 142.993,76.3121 141.5,75.5C 141.5,75.1667 141.5,74.8333 141.5,74.5C 140.001,74.0401 139.001,72.7067 138.5,70.5C 141.675,69.9093 144.009,70.9093 145.5,73.5 Z"/></g>
<g><path style="opacity:1" fill="#dff4f7" d="M 141.5,74.5 C 141.5,74.8333 141.5,75.1667 141.5,75.5C 142.038,77.1172 142.371,78.7839 142.5,80.5C 141.5,80.5 140.5,80.5 139.5,80.5C 139.259,78.1016 139.926,76.1016 141.5,74.5 Z"/></g>
<g><path style="opacity:1" fill="#44b3f3" d="M 154.5,69.5 C 157.909,69.2493 161.242,69.5827 164.5,70.5C 166.659,72.9544 166.992,75.6211 165.5,78.5C 164.5,78.5 163.5,78.5 162.5,78.5C 162.5,76.5 162.5,74.5 162.5,72.5C 160.585,72.2155 158.919,72.5489 157.5,73.5C 157.5,74.8333 157.5,76.1667 157.5,77.5C 156.793,80.7861 156.46,84.1194 156.5,87.5C 155.5,87.5 154.5,87.5 153.5,87.5C 153.211,81.4093 153.545,75.4093 154.5,69.5 Z"/></g>
<g><path style="opacity:1" fill="#3fb4f7" d="M 290.5,84.5 C 292.042,85.1635 293.709,85.8302 295.5,86.5C 292.572,87.4841 289.572,87.8174 286.5,87.5C 286.5,81.8333 286.5,76.1667 286.5,70.5C 287.5,70.5 288.5,70.5 289.5,70.5C 289.181,75.3633 289.514,80.03 290.5,84.5 Z"/></g>
<g><path style="opacity:1" fill="#66add4" d="M 99.5,82.5 C 100.774,83.1894 100.774,84.0228 99.5,85C 98.062,85.2189 96.7287,85.7189 95.5,86.5C 97.8111,87.5751 100.144,87.5751 102.5,86.5C 102.389,87.1174 102.056,87.6174 101.5,88C 98.1667,88.6667 94.8333,88.6667 91.5,88C 90.6198,86.6439 90.2865,85.1439 90.5,83.5C 92.5466,83.5111 94.5466,83.8444 96.5,84.5C 98.0377,84.5466 99.0377,83.8799 99.5,82.5 Z"/></g>
<g><path style="opacity:1" fill="#839dac" d="M 57.5,82.5 C 57.7895,86.554 57.1229,87.054 55.5,84C 53.1902,83.5034 50.8568,83.3367 48.5,83.5C 48.6633,85.8568 48.4966,88.1902 48,90.5C 47.3923,88.8455 46.8923,87.1789 46.5,85.5C 47.404,84.791 47.7373,83.791 47.5,82.5C 50.8333,82.5 54.1667,82.5 57.5,82.5 Z"/></g>
<g><path style="opacity:1" fill="#67a7c6" d="M 114.5,83.5 C 115.785,85.0622 117.285,86.3955 119,87.5C 120.011,86.9444 120.844,86.2778 121.5,85.5C 121.5,86.5 121.5,87.5 121.5,88.5C 117.167,89.3147 114.834,87.648 114.5,83.5 Z"/></g>
<g><path style="opacity:1" fill="#72a8ca" d="M 269.5,69.5 C 271.5,69.5 273.5,69.5 275.5,69.5C 275.5,74.5 275.5,79.5 275.5,84.5C 274.514,80.03 274.181,75.3633 274.5,70.5C 273.5,70.5 272.5,70.5 271.5,70.5C 272.479,76.4055 272.146,82.0721 270.5,87.5C 274.226,87.8226 277.893,87.4892 281.5,86.5C 281.137,85.8165 280.804,85.1499 280.5,84.5C 282.176,85.1834 282.843,86.5168 282.5,88.5C 278.167,88.5 273.833,88.5 269.5,88.5C 269.5,82.1667 269.5,75.8333 269.5,69.5 Z"/></g>
<g><path style="opacity:1" fill="#44b2f3" d="M 275.5,84.5 C 277.167,84.5 278.833,84.5 280.5,84.5C 280.804,85.1499 281.137,85.8165 281.5,86.5C 277.893,87.4892 274.226,87.8226 270.5,87.5C 272.146,82.0721 272.479,76.4055 271.5,70.5C 272.5,70.5 273.5,70.5 274.5,70.5C 274.181,75.3633 274.514,80.03 275.5,84.5 Z"/></g>
<g><path style="opacity:1" fill="#72a7c4" d="M 39.5,85.5 C 40.135,88.8728 40.635,92.2062 41,95.5C 39.8773,92.7513 38.3773,90.2513 36.5,88C 34.8034,87.6155 33.1368,87.7822 31.5,88.5C 33.6535,86.6614 36.3201,85.6614 39.5,85.5 Z"/></g>
<g><path style="opacity:1" fill="#6ca9d1" d="M 79.5,71.5 C 79.4013,80.8436 79.068,90.177 78.5,99.5C 77.5084,92.3524 77.175,85.0191 77.5,77.5C 78.1667,75.5 78.8333,73.5 79.5,71.5 Z"/></g>
<g><path style="opacity:1" fill="#eaf7fa" d="M 191.5,69.5 C 192.167,76.0119 192.833,82.6786 193.5,89.5C 194.167,82.6786 194.833,76.0119 195.5,69.5C 195.5,75.8333 195.5,82.1667 195.5,88.5C 197.167,88.5 198.833,88.5 200.5,88.5C 200.335,84.8183 200.501,81.1516 201,77.5C 201.383,78.056 201.883,78.3893 202.5,78.5C 202.5,78.8333 202.5,79.1667 202.5,79.5C 203.773,81.7128 204.773,84.0462 205.5,86.5C 204.883,86.3893 204.383,86.056 204,85.5C 203.506,87.1341 203.34,88.8008 203.5,90.5C 200.278,90.1081 197.278,90.6081 194.5,92C 219.167,92.6667 243.833,92.6667 268.5,92C 266.287,90.3838 263.953,89.2172 261.5,88.5C 263.5,88.5 265.5,88.5 267.5,88.5C 267.5,87.5 267.5,86.5 267.5,85.5C 268.167,80.1667 268.833,74.8333 269.5,69.5C 269.5,75.8333 269.5,82.1667 269.5,88.5C 273.833,88.5 278.167,88.5 282.5,88.5C 278.366,89.4849 274.032,89.8182 269.5,89.5C 269.5,90.5 269.5,91.5 269.5,92.5C 278.017,92.1739 286.35,92.5073 294.5,93.5C 226.833,93.5 159.167,93.5 91.5,93.5C 91.1667,93.5 90.8333,93.5 90.5,93.5C 110.004,92.8333 129.671,92.1667 149.5,91.5C 147.668,90.9432 146.335,89.9432 145.5,88.5C 147.167,88.5 148.833,88.5 150.5,88.5C 149.565,84.0307 148.232,79.6973 146.5,75.5C 148.044,75.2969 149.378,74.6302 150.5,73.5C 151.681,75.1353 151.681,76.802 150.5,78.5C 150.957,79.2975 151.624,79.6309 152.5,79.5C 152.5,82.5 152.5,85.5 152.5,88.5C 154.167,88.5 155.833,88.5 157.5,88.5C 157.192,86.076 157.526,83.7427 158.5,81.5C 159.107,81.6236 159.44,81.9569 159.5,82.5C 158.834,85.0277 158.168,87.6944 157.5,90.5C 155.115,90.2035 152.782,90.7035 150.5,92C 164.845,92.8328 179.178,92.6661 193.5,91.5C 192.065,89.5989 190.398,89.2655 188.5,90.5C 187.702,90.0431 187.369,89.3764 187.5,88.5C 189.099,88.7678 190.432,88.4345 191.5,87.5C 191.5,81.8333 191.5,76.1667 191.5,70.5C 191.5,70.1667 191.5,69.8333 191.5,69.5 Z"/></g>
<g><path style="opacity:1" fill="#61a8d2" d="M 267.5,85.5 C 267.5,86.5 267.5,87.5 267.5,88.5C 265.5,88.5 263.5,88.5 261.5,88.5C 261.5,88.1667 261.5,87.8333 261.5,87.5C 262.833,87.5 264.167,87.5 265.5,87.5C 263.693,82.2746 262.193,76.9413 261,71.5C 260.107,70.9186 259.107,70.5852 258,70.5C 256.107,71.0077 254.607,72.0077 253.5,73.5C 253.539,72.4168 253.873,71.4168 254.5,70.5C 256.765,69.3526 259.098,69.1859 261.5,70C 263.587,75.2216 265.587,80.3882 267.5,85.5 Z"/></g>
<g><path style="opacity:1" fill="#62aad6" d="M 253.5,74.5 C 253.379,78.4557 252.379,82.1223 250.5,85.5C 251.325,86.3857 252.325,86.719 253.5,86.5C 253.5,85.5 253.5,84.5 253.5,83.5C 256.698,82.9644 259.365,83.631 261.5,85.5C 259.473,85.3379 257.473,85.5045 255.5,86C 253.626,88.4547 251.293,88.9547 248.5,87.5C 249.999,82.9891 251.665,78.6558 253.5,74.5 Z"/></g>
<g><path style="opacity:1" fill="#6697b0" d="M 232.5,73.5 C 230.771,71.2733 228.438,70.2733 225.5,70.5C 225.5,75.8333 225.5,81.1667 225.5,86.5C 225.5,87.1667 225.5,87.8333 225.5,88.5C 224.51,82.3554 224.177,76.0221 224.5,69.5C 227.167,69.5 229.833,69.5 232.5,69.5C 232.5,70.8333 232.5,72.1667 232.5,73.5 Z"/></g>
<g><path style="opacity:1" fill="#46b1ef" d="M 261.5,87.5 C 261.5,86.8333 261.5,86.1667 261.5,85.5C 259.365,83.631 256.698,82.9644 253.5,83.5C 253.5,84.5 253.5,85.5 253.5,86.5C 252.325,86.719 251.325,86.3857 250.5,85.5C 252.379,82.1223 253.379,78.4557 253.5,74.5C 253.5,74.1667 253.5,73.8333 253.5,73.5C 254.607,72.0077 256.107,71.0077 258,70.5C 259.107,70.5852 260.107,70.9186 261,71.5C 262.193,76.9413 263.693,82.2746 265.5,87.5C 264.167,87.5 262.833,87.5 261.5,87.5 Z"/></g>
<g><path style="opacity:1" fill="#3eb4f6" d="M 232.5,73.5 C 232.662,75.5273 232.495,77.5273 232,79.5C 231.385,77.8839 230.385,76.5505 229,75.5C 228.827,79.5408 228.327,83.5408 227.5,87.5C 226.817,87.1373 226.15,86.8039 225.5,86.5C 225.5,81.1667 225.5,75.8333 225.5,70.5C 228.438,70.2733 230.771,71.2733 232.5,73.5 Z"/></g>
<g><path style="opacity:1" fill="#5b99bb" d="M 195.5,69.5 C 200.993,68.3275 204.326,70.3275 205.5,75.5C 203.273,74.5994 202.273,72.9328 202.5,70.5C 200.5,70.5 198.5,70.5 196.5,70.5C 196.5,76.1667 196.5,81.8333 196.5,87.5C 197.5,87.5 198.5,87.5 199.5,87.5C 199.176,83.4454 199.509,79.4454 200.5,75.5C 201.919,76.0047 202.585,77.0047 202.5,78.5C 201.883,78.3893 201.383,78.056 201,77.5C 200.501,81.1516 200.335,84.8183 200.5,88.5C 198.833,88.5 197.167,88.5 195.5,88.5C 195.5,82.1667 195.5,75.8333 195.5,69.5 Z"/></g>
<g><path style="opacity:1" fill="#5ca8d8" d="M 239.5,71.5 C 239.149,73.8695 238.982,76.2028 239,78.5C 240.22,76.1428 241.053,76.4761 241.5,79.5C 239.928,82.2154 238.928,85.2154 238.5,88.5C 236.5,88.5 234.5,88.5 232.5,88.5C 230.253,75.382 229.253,75.382 229.5,88.5C 228.167,88.5 226.833,88.5 225.5,88.5C 225.5,87.8333 225.5,87.1667 225.5,86.5C 226.15,86.8039 226.817,87.1373 227.5,87.5C 228.327,83.5408 228.827,79.5408 229,75.5C 230.385,76.5505 231.385,77.8839 232,79.5C 232.495,77.5273 232.662,75.5273 232.5,73.5C 233.661,76.1022 234.828,78.7689 236,81.5C 236.878,77.9477 238.044,74.6144 239.5,71.5 Z"/></g>
<g><path style="opacity:1" fill="#68add5" d="M 205.5,86.5 C 204.773,84.0462 203.773,81.7128 202.5,79.5C 203.5,79.5 204.5,79.5 205.5,79.5C 205.5,78.1667 205.5,76.8333 205.5,75.5C 206.479,76.7653 207.479,78.0986 208.5,79.5C 209.487,76.2317 209.82,72.8984 209.5,69.5C 211.167,69.5 212.833,69.5 214.5,69.5C 214.5,75.8333 214.5,82.1667 214.5,88.5C 211.145,88.9086 208.145,88.2419 205.5,86.5 Z"/></g>
<g><path style="opacity:1" fill="#3ab5fc" d="M 210.5,70.5 C 212.446,75.3958 213.113,80.7291 212.5,86.5C 207.316,87.3184 205.316,85.3184 206.5,80.5C 207.167,81.5 207.833,82.5 208.5,83.5C 209.192,82.9747 209.692,82.3081 210,81.5C 210.499,77.8484 210.665,74.1817 210.5,70.5 Z"/></g>
<g><path style="opacity:1" fill="#e7f7f3" d="M 257.5,74.5 C 259.074,76.1016 259.741,78.1016 259.5,80.5C 258.325,80.719 257.325,80.3857 256.5,79.5C 257.309,77.9291 257.643,76.2624 257.5,74.5 Z"/></g>
<g><path style="opacity:1" fill="#dcecf3" d="M 157.5,73.5 C 159.346,73.2222 160.68,73.8888 161.5,75.5C 160.68,77.1112 159.346,77.7778 157.5,77.5C 157.5,76.1667 157.5,74.8333 157.5,73.5 Z"/></g>
<g><path style="opacity:1" fill="#42b0f1" d="M 239.5,70.5 C 241.5,70.5 243.5,70.5 245.5,70.5C 245.5,76.1667 245.5,81.8333 245.5,87.5C 244.5,87.5 243.5,87.5 242.5,87.5C 242.806,84.6146 242.473,81.9479 241.5,79.5C 241.053,76.4761 240.22,76.1428 239,78.5C 238.982,76.2028 239.149,73.8695 239.5,71.5C 239.5,71.1667 239.5,70.8333 239.5,70.5 Z"/></g>
<g><path style="opacity:1" fill="#42b3f4" d="M 205.5,75.5 C 205.5,76.8333 205.5,78.1667 205.5,79.5C 204.5,79.5 203.5,79.5 202.5,79.5C 202.5,79.1667 202.5,78.8333 202.5,78.5C 202.585,77.0047 201.919,76.0047 200.5,75.5C 199.509,79.4454 199.176,83.4454 199.5,87.5C 198.5,87.5 197.5,87.5 196.5,87.5C 196.5,81.8333 196.5,76.1667 196.5,70.5C 198.5,70.5 200.5,70.5 202.5,70.5C 202.273,72.9328 203.273,74.5994 205.5,75.5 Z"/></g>
<g><path style="opacity:1" fill="#62a2c6" d="M 239.5,70.5 C 241.607,69.5318 243.941,69.1984 246.5,69.5C 246.5,75.8333 246.5,82.1667 246.5,88.5C 244.833,88.5 243.167,88.5 241.5,88.5C 241.5,85.5 241.5,82.5 241.5,79.5C 242.473,81.9479 242.806,84.6146 242.5,87.5C 243.5,87.5 244.5,87.5 245.5,87.5C 245.5,81.8333 245.5,76.1667 245.5,70.5C 243.5,70.5 241.5,70.5 239.5,70.5 Z"/></g>
<g><path style="opacity:1" fill="#74a6be" d="M 21.5,89.5 C 23.0443,89.7031 24.3777,90.3698 25.5,91.5C 26.1835,91.1373 26.8501,90.8039 27.5,90.5C 27.9052,92.6498 28.4052,94.6498 29,96.5C 26.0015,94.6671 23.5015,92.3338 21.5,89.5 Z"/></g>
<g><path style="opacity:1" fill="#6eabcf" d="M 75.5,65.5 C 75.3847,76.352 74.3847,87.0186 72.5,97.5C 71.5,97.5 70.5,97.5 69.5,97.5C 62.1667,97.5 54.8333,97.5 47.5,97.5C 55.2813,95.2049 63.2813,94.8716 71.5,96.5C 72.4537,85.9829 73.787,75.6496 75.5,65.5 Z"/></g>
<g><path style="opacity:1" fill="#67a9d0" d="M 90.5,93.5 C 90.8333,93.5 91.1667,93.5 91.5,93.5C 91.5,93.8333 91.5,94.1667 91.5,94.5C 91.5,95.5 91.5,96.5 91.5,97.5C 158.833,97.5 226.167,97.5 293.5,97.5C 293.5,96.5 293.5,95.5 293.5,94.5C 294.167,94.5 294.5,94.1667 294.5,93.5C 295.451,94.9187 295.784,96.5853 295.5,98.5C 227.167,98.5 158.833,98.5 90.5,98.5C 90.5,96.8333 90.5,95.1667 90.5,93.5 Z"/></g>
<g><path style="opacity:1" fill="#41b4f5" d="M 91.5,94.5 C 158.778,94.8171 226.111,94.8171 293.5,94.5C 293.5,95.5 293.5,96.5 293.5,97.5C 226.167,97.5 158.833,97.5 91.5,97.5C 91.5,96.5 91.5,95.5 91.5,94.5 Z"/></g>
<g><path style="opacity:1" fill="#5396bc" d="M 91.5,94.5 C 91.5,94.1667 91.5,93.8333 91.5,93.5C 159.167,93.5 226.833,93.5 294.5,93.5C 294.5,94.1667 294.167,94.5 293.5,94.5C 226.111,94.8171 158.778,94.8171 91.5,94.5 Z"/></g>
<g><path style="opacity:1" fill="#43b3f4" d="M 47.5,97.5 C 54.8333,97.5 62.1667,97.5 69.5,97.5C 71.0808,99.1417 71.7475,101.142 71.5,103.5C 68.1265,103.198 64.9598,102.198 62,100.5C 55.3412,101.214 48.6745,101.88 42,102.5C 39.2585,102.884 37.4251,101.884 36.5,99.5C 39.9981,98.0832 43.6648,97.4165 47.5,97.5 Z"/></g>
<g><path style="opacity:1" fill="#4fafe6" d="M 77.5,77.5 C 77.175,85.0191 77.5084,92.3524 78.5,99.5C 80.7271,100.401 81.7271,102.067 81.5,104.5C 81.5,106.5 81.5,108.5 81.5,110.5C 81.0181,107.954 80.0181,105.621 78.5,103.5C 77.4968,105.542 76.1634,105.875 74.5,104.5C 73.6919,104.808 73.0253,105.308 72.5,106C 74.4641,107.451 75.7974,109.284 76.5,111.5C 68.5311,103.348 58.8644,100.515 47.5,103C 39.7785,104.348 32.1118,105.848 24.5,107.5C 24.33,106.178 24.6634,105.011 25.5,104C 28.8871,101.815 32.5538,100.315 36.5,99.5C 37.4251,101.884 39.2585,102.884 42,102.5C 48.6745,101.88 55.3412,101.214 62,100.5C 64.9598,102.198 68.1265,103.198 71.5,103.5C 71.7475,101.142 71.0808,99.1417 69.5,97.5C 70.5,97.5 71.5,97.5 72.5,97.5C 72.8586,99.4846 73.692,100.151 75,99.5C 74.9227,100.738 75.0894,101.738 75.5,102.5C 76.1667,94.0096 76.8334,85.6763 77.5,77.5 Z"/></g>
<g><path style="opacity:1" fill="#3ab5fa" d="M 81.5,110.5 C 82.2436,113.95 80.9103,115.616 77.5,115.5C 77.7678,113.901 77.4345,112.568 76.5,111.5C 75.7974,109.284 74.4641,107.451 72.5,106C 73.0253,105.308 73.6919,104.808 74.5,104.5C 76.1634,105.875 77.4968,105.542 78.5,103.5C 80.0181,105.621 81.0181,107.954 81.5,110.5 Z"/></g>
<g><path style="opacity:1" fill="#77a3c3" d="M 191.5,104.5 C 194.674,104.952 195.007,105.952 192.5,107.5C 191.614,106.675 191.281,105.675 191.5,104.5 Z"/></g>
<g><path style="opacity:1" fill="#77a1b5" d="M 258.5,104.5 C 259.5,104.5 260.5,104.5 261.5,104.5C 261.5,105.5 261.5,106.5 261.5,107.5C 260.5,107.5 259.5,107.5 258.5,107.5C 258.5,106.5 258.5,105.5 258.5,104.5 Z"/></g>
<g><path style="opacity:1" fill="#819ea9" d="M 110.5,107.5 C 112.265,106.539 114.265,106.205 116.5,106.5C 116.649,107.552 116.483,108.552 116,109.5C 114.644,108.62 113.144,108.286 111.5,108.5C 111.5,107.833 111.167,107.5 110.5,107.5 Z"/></g>
<g><path style="opacity:1" fill="#44b2f4" d="M 67.5,113.5 C 66.1667,113.5 64.8333,113.5 63.5,113.5C 63.1667,113.5 62.8333,113.5 62.5,113.5C 62.0825,112.778 61.4158,112.278 60.5,112C 53.1308,111.274 45.7975,111.441 38.5,112.5C 38.1667,112.5 37.8333,112.5 37.5,112.5C 47.8229,107.842 58.4896,107.342 69.5,111C 68.244,111.417 67.5774,112.25 67.5,113.5 Z"/></g>
<g><path style="opacity:1" fill="#72a8c9" d="M 150.5,106.5 C 154.102,107.88 155.102,110.38 153.5,114C 153.844,115.365 154.511,116.532 155.5,117.5C 153.994,118.747 152.494,118.747 151,117.5C 150.505,115.527 150.338,113.527 150.5,111.5C 149.022,111.238 147.689,111.571 146.5,112.5C 145.959,114.535 145.292,116.535 144.5,118.5C 143.516,115.572 143.183,112.572 143.5,109.5C 145.833,109.5 148.167,109.5 150.5,109.5C 150.5,108.5 150.5,107.5 150.5,106.5 Z"/></g>
<g><path style="opacity:1" fill="#71a0bf" d="M 196.5,109.5 C 198.604,109.201 200.604,109.534 202.5,110.5C 201.311,111.429 199.978,111.762 198.5,111.5C 198.5,113.167 198.5,114.833 198.5,116.5C 199.978,116.238 201.311,116.571 202.5,117.5C 195.82,118.796 193.82,116.13 196.5,109.5 Z"/></g>
<g><path style="opacity:1" fill="#6a9fc0" d="M 163.5,106.5 C 170.569,106.743 170.903,107.577 164.5,109C 162.069,114.271 163.735,117.104 169.5,117.5C 164.019,119.983 161.019,118.317 160.5,112.5C 160.467,109.898 161.467,107.898 163.5,106.5 Z"/></g>
<g><path style="opacity:1" fill="#70a4c2" d="M 183.5,108.5 C 189.578,109.637 190.911,112.804 187.5,118C 182,119.167 179.833,117 181,111.5C 181.698,110.309 182.531,109.309 183.5,108.5 Z"/></g>
<g><path style="opacity:1" fill="#67aad2" d="M 191.5,109.5 C 192.765,110.514 193.431,112.014 193.5,114C 193.167,115.5 192.833,117 192.5,118.5C 191.516,115.572 191.183,112.572 191.5,109.5 Z"/></g>
<g><path style="opacity:1" fill="#74a7c5" d="M 206.5,108.5 C 210.314,108.651 211.981,110.651 211.5,114.5C 204.951,114.907 204.951,115.907 211.5,117.5C 205.544,119.706 203.044,117.706 204,111.5C 205.045,110.627 205.878,109.627 206.5,108.5 Z"/></g>
<g><path style="opacity:1" fill="#6a97b2" d="M 258.5,109.5 C 259.5,109.5 260.5,109.5 261.5,109.5C 261.5,112.5 261.5,115.5 261.5,118.5C 260.5,118.5 259.5,118.5 258.5,118.5C 258.5,115.5 258.5,112.5 258.5,109.5 Z"/></g>
<g><path style="opacity:1" fill="#67a5ca" d="M 62.5,113.5 C 54.8212,112.331 47.1545,112.331 39.5,113.5C 38.8333,113.5 38.5,113.167 38.5,112.5C 45.7975,111.441 53.1308,111.274 60.5,112C 61.4158,112.278 62.0825,112.778 62.5,113.5 Z"/></g>
<g><path style="opacity:1" fill="#6aa3c6" d="M 110.5,107.5 C 111.167,107.5 111.5,107.833 111.5,108.5C 112.902,110.483 114.736,112.149 117,113.5C 117.834,116.814 116.501,118.481 113,118.5C 111.272,118.546 109.772,118.046 108.5,117C 109,116.5 109.5,116 110,115.5C 111.356,116.38 112.856,116.714 114.5,116.5C 114.5,115.5 114.5,114.5 114.5,113.5C 110.165,113.285 108.832,111.285 110.5,107.5 Z"/></g>
<g><path style="opacity:1" fill="#ecf8fa" d="M 183.5,111.5 C 184.5,111.5 185.5,111.5 186.5,111.5C 186.5,113.167 186.5,114.833 186.5,116.5C 185.5,116.5 184.5,116.5 183.5,116.5C 183.5,114.833 183.5,113.167 183.5,111.5 Z"/></g>
<g><path style="opacity:1" fill="#6a9bc1" d="M 263.5,107.5 C 265.433,107.729 267.1,108.562 268.5,110C 265.907,112.479 265.907,114.979 268.5,117.5C 266.994,118.747 265.494,118.747 264,117.5C 263.028,114.087 262.862,110.753 263.5,107.5 Z"/></g>
<g><path style="opacity:1" fill="#6fa9c7" d="M 215.5,108.5 C 220.03,109.02 220.363,110.186 216.5,112C 219.89,113.006 220.89,115.006 219.5,118C 217.421,118.808 215.421,118.641 213.5,117.5C 218.639,116.803 218.805,115.47 214,113.5C 213.36,111.457 213.86,109.79 215.5,108.5 Z"/></g>
<g><path style="opacity:1" fill="#6aa6c7" d="M 228.5,106.5 C 229.833,106.5 231.167,106.5 232.5,106.5C 233.191,110.226 234.191,113.893 235.5,117.5C 234.675,118.386 233.675,118.719 232.5,118.5C 232.5,117.5 232.5,116.5 232.5,115.5C 229.951,115.441 227.951,116.441 226.5,118.5C 226.167,118 225.833,117.5 225.5,117C 226.426,113.459 227.426,109.959 228.5,106.5 Z"/></g>
<g><path style="opacity:1" fill="#e5f5fd" d="M 229.5,110.5 C 231.332,111.14 231.665,112.14 230.5,113.5C 229.614,112.675 229.281,111.675 229.5,110.5 Z"/></g>
<g><path style="opacity:1" fill="#6ca2c2" d="M 235.5,109.5 C 236.5,109.5 237.5,109.5 238.5,109.5C 238.338,111.527 238.505,113.527 239,115.5C 238.855,112.077 240.355,110.077 243.5,109.5C 243.343,110.873 243.51,112.207 244,113.5C 244.583,111.998 245.416,110.665 246.5,109.5C 246.833,110.167 247.167,110.833 247.5,111.5C 246.777,113.782 246.443,116.116 246.5,118.5C 245.167,118.5 243.833,118.5 242.5,118.5C 242.281,113.371 241.614,113.371 240.5,118.5C 239.325,118.719 238.325,118.386 237.5,117.5C 236.705,114.856 236.038,112.189 235.5,109.5 Z"/></g>
<g><path style="opacity:1" fill="#73a2bf" d="M 250.5,108.5 C 252.722,108.178 254.556,108.845 256,110.5C 256.818,113.227 256.652,115.894 255.5,118.5C 253.398,118.521 251.232,118.187 249,117.5C 248.558,114.26 250.058,112.427 253.5,112C 252.062,111.781 250.729,111.281 249.5,110.5C 249.863,109.817 250.196,109.15 250.5,108.5 Z"/></g>
<g><path style="opacity:1" fill="#e2fbff" d="M 251.5,114.5 C 253.337,114.639 253.67,115.306 252.5,116.5C 251.702,116.043 251.369,115.376 251.5,114.5 Z"/></g>
<g><path style="opacity:1" fill="#6cb6e8" d="M 40.5,115.5 C 41.4584,115.953 42.2917,116.619 43,117.5C 44.509,125.195 41.3423,128.028 33.5,126C 32.6195,125.292 31.9528,124.458 31.5,123.5C 28.054,113.951 31.054,111.284 40.5,115.5 Z"/></g>
<g><path style="opacity:1" fill="#67a7cb" d="M 119.5,109.5 C 123.5,109.5 127.5,109.5 131.5,109.5C 131.817,112.572 131.484,115.572 130.5,118.5C 129.526,116.257 129.192,113.924 129.5,111.5C 128.5,111.5 127.5,111.5 126.5,111.5C 125.833,120.833 125.167,120.833 124.5,111.5C 123.5,111.5 122.5,111.5 121.5,111.5C 121.808,113.924 121.474,116.257 120.5,118.5C 119.516,115.572 119.183,112.572 119.5,109.5 Z"/></g>
<g><path style="opacity:1" fill="#75a7c6" d="M 170.5,105.5 C 171.5,105.5 172.5,105.5 173.5,105.5C 173.5,106.833 173.5,108.167 173.5,109.5C 175.167,109.5 176.833,109.5 178.5,109.5C 178.817,112.572 178.484,115.572 177.5,118.5C 176.526,116.257 176.192,113.924 176.5,111.5C 175.5,111.5 174.5,111.5 173.5,111.5C 173.5,113.833 173.5,116.167 173.5,118.5C 172.5,118.5 171.5,118.5 170.5,118.5C 170.5,114.167 170.5,109.833 170.5,105.5 Z"/></g>
<g><path style="opacity:1" fill="#75a5c2" d="M 135.5,108.5 C 141.26,109.56 142.927,112.894 140.5,118.5C 138.345,118.162 136.011,118.162 133.5,118.5C 132.93,114.579 134.597,112.412 138.5,112C 137.062,111.781 135.729,111.281 134.5,110.5C 134.863,109.817 135.196,109.15 135.5,108.5 Z"/></g>
<g><path style="opacity:1" fill="#dcfcff" d="M 136.5,114.5 C 137.376,114.369 138.043,114.702 138.5,115.5C 136.192,116.873 135.525,116.54 136.5,114.5 Z"/></g>
<g><path style="opacity:1" fill="#9bcde5" d="M 34.5,111.5 C 35.209,112.404 36.209,112.737 37.5,112.5C 37.8333,112.5 38.1667,112.5 38.5,112.5C 38.5,113.167 38.8333,113.5 39.5,113.5C 39.8333,114.167 40.1667,114.833 40.5,115.5C 31.054,111.284 28.054,113.951 31.5,123.5C 30.2502,123.423 29.4169,122.756 29,121.5C 27.0742,115.958 28.9076,112.625 34.5,111.5 Z"/></g>
<g><path style="opacity:1" fill="#6eb5de" d="M 81.5,104.5 C 82.6453,108.311 82.8119,112.311 82,116.5C 80.3729,119.78 78.8729,123.113 77.5,126.5C 75.1022,127.724 72.7689,127.558 70.5,126C 69.3333,124.167 67.8333,122.667 66,121.5C 65.8827,118.496 65.0493,115.829 63.5,113.5C 64.8333,113.5 66.1667,113.5 67.5,113.5C 67.5774,112.25 68.244,111.417 69.5,111C 58.4896,107.342 47.8229,107.842 37.5,112.5C 36.209,112.737 35.209,112.404 34.5,111.5C 40.1879,108.54 46.3546,107.207 53,107.5C 61.0011,107.191 68.5011,108.858 75.5,112.5C 76.1067,112.376 76.44,112.043 76.5,111.5C 77.4345,112.568 77.7678,113.901 77.5,115.5C 80.9103,115.616 82.2436,113.95 81.5,110.5C 81.5,108.5 81.5,106.5 81.5,104.5 Z"/></g>
<g><path style="opacity:1" fill="#49b5f3" d="M 67.5,113.5 C 69.924,113.192 72.2573,113.526 74.5,114.5C 73.6602,115.735 72.6602,116.735 71.5,117.5C 69.857,117.48 68.5237,118.147 67.5,119.5C 66.4808,117.54 66.4808,115.54 67.5,113.5 Z"/></g>
<g><path style="opacity:1" fill="#f2f8f7" d="M 34.5,117.5 C 37.8333,117.5 39.5,119.167 39.5,122.5C 35.5,123.167 33.8333,121.5 34.5,117.5 Z"/></g>
<g><path style="opacity:1" fill="#f5f5f9" d="M 71.5,117.5 C 74.8333,117.5 76.5,119.167 76.5,122.5C 72.5,123.167 70.8333,121.5 71.5,117.5 Z"/></g>
</svg>
