<svg width="334" height="181" version="1.1" xmlns="http://www.w3.org/2000/svg"><path fill="rgb(0,0,0)" stroke="rgb(0,0,0)" stroke-width="1" opacity="0" d="M 0 0 L 334 0 L 334 181 L 0 181 L 0 0 Z M 93 48 L 84 51 Q 77 55 75 65 L 74 78 L 73 79 L 73 92 L 71 97 L 69 96 L 56 96 L 55 95 L 51 97 Q 45 96 44 98 L 40 88 Q 42 85 47 86 L 48 90 Q 47 93 50 92 L 49 86 Q 50 83 52 85 L 56 84 L 58 87 L 58 84 Q 64 86 66 83 L 57 79 L 57 75 L 66 75 L 66 73 L 64 72 L 61 73 L 57 72 Q 54 71 55 67 L 57 67 L 64 66 L 66 66 L 70 67 Q 72 68 71 65 L 62 64 L 57 62 L 39 61 L 38 60 L 35 61 L 32 60 Q 22 61 15 64 L 11 69 L 11 74 L 13 80 L 27 96 L 30 98 L 31 99 L 29 93 Q 30 90 34 91 L 36 88 L 42 98 L 41 99 L 36 99 L 27 103 L 24 108 L 26 108 L 29 109 L 32 107 L 36 108 Q 38 109 37 106 L 55 103 L 65 105 Q 68 104 67 107 L 70 107 Q 72 106 71 109 L 72 110 L 66 108 L 51 107 L 50 106 L 44 109 L 36 110 L 34 110 L 33 112 L 29 114 L 28 118 L 29 123 Q 32 127 39 129 L 43 127 L 45 124 L 45 121 L 42 115 L 46 114 L 64 115 L 67 124 Q 69 130 79 128 L 82 125 L 81 124 L 84 117 Q 85 104 81 99 L 79 99 L 81 98 L 80 97 L 80 85 L 81 84 L 80 79 L 81 67 L 85 59 L 90 56 L 98 57 Q 100 57 100 53 L 101 51 Q 98 52 99 50 Q 98 47 93 48 Z M 96 69 L 91 75 L 92 79 L 98 82 L 99 84 L 96 83 L 91 83 L 91 89 L 94 90 L 103 89 Q 107 87 105 80 L 99 76 L 99 75 L 104 76 L 105 70 L 96 69 Z M 109 69 L 106 71 L 107 72 L 107 88 L 108 89 Q 107 92 112 90 Q 114 89 114 84 Q 116 85 114 87 L 116 91 L 122 90 L 124 84 L 125 90 L 128 90 Q 131 91 130 89 L 133 90 L 134 89 L 138 90 L 139 87 L 141 87 L 144 86 L 147 90 Q 150 91 151 89 L 146 71 Q 145 68 139 69 L 136 73 Q 137 76 135 75 L 135 77 L 132 84 Q 133 88 130 87 L 131 83 L 130 78 L 131 75 L 130 73 L 130 69 L 124 69 L 119 79 L 116 71 Q 115 68 109 69 Z M 155 69 L 152 70 L 152 80 L 153 81 L 152 85 L 153 90 L 155 89 L 157 90 L 159 89 L 160 84 L 162 90 L 164 89 L 166 90 L 171 89 L 166 82 L 166 80 Q 168 81 167 78 L 168 75 L 167 71 Q 163 68 155 69 Z M 171 69 L 169 71 L 170 74 Q 169 77 174 75 L 173 77 L 174 78 L 174 90 L 176 91 L 179 90 L 181 84 L 181 75 L 185 75 L 186 75 L 185 77 L 187 77 L 186 79 L 187 82 L 187 84 Q 185 90 189 90 Q 190 92 192 89 L 193 89 L 193 70 L 188 69 Q 185 70 187 72 Q 188 74 186 73 L 186 72 L 184 69 L 171 69 Z M 199 69 L 195 70 L 195 80 L 194 81 L 196 86 L 196 90 L 198 91 L 201 90 L 203 87 L 203 84 L 202 86 L 201 86 Q 199 80 203 81 L 209 90 Q 215 91 215 90 L 215 71 Q 214 68 211 69 Q 208 70 209 75 L 209 77 L 209 78 L 206 73 Q 205 68 199 69 Z M 227 69 L 225 71 L 225 89 L 229 90 L 232 84 L 232 88 L 236 90 L 238 89 L 240 90 L 241 90 L 240 85 L 242 84 L 241 89 L 246 91 L 246 90 L 249 91 L 251 89 L 255 90 L 256 87 L 259 86 L 262 87 L 261 89 L 264 90 L 266 89 L 266 91 L 269 89 L 266 79 L 266 77 L 262 69 Q 257 68 256 70 Q 253 69 254 72 L 254 74 L 250 84 L 249 87 L 247 87 L 249 77 L 247 76 L 248 72 Q 247 68 242 69 L 238 75 L 238 77 L 237 77 L 237 79 L 237 80 L 233 70 L 227 69 Z M 272 69 L 270 71 L 269 81 L 269 83 L 270 89 L 272 90 L 280 90 L 284 90 Q 286 91 285 89 L 286 89 Q 285 91 292 90 L 294 90 L 296 91 L 299 90 L 299 84 L 292 84 L 292 71 Q 291 68 286 69 Q 284 73 285 83 L 285 85 L 285 86 Q 284 83 280 84 L 278 84 L 276 78 L 277 72 L 272 69 Z M 167 92 L 166 93 L 136 93 L 134 93 L 94 93 L 93 94 Q 88 93 90 99 L 92 100 L 295 100 Q 297 99 296 95 L 293 92 L 288 94 L 287 93 L 272 93 L 271 92 L 269 93 L 267 93 Q 261 92 260 94 L 259 93 L 245 93 L 243 93 L 187 93 L 186 94 L 185 93 L 168 93 L 167 92 Z M 174 105 L 171 106 L 171 108 L 168 106 L 162 108 L 162 110 L 161 112 L 160 115 L 165 120 L 170 119 Q 171 116 173 120 L 175 119 L 175 117 Q 177 116 176 119 L 179 119 Q 180 115 182 119 Q 181 121 188 120 L 191 116 L 191 119 L 195 120 L 196 117 L 196 119 L 199 120 Q 202 121 203 119 Q 204 116 202 117 L 199 113 L 204 111 L 202 109 L 196 110 L 196 112 L 194 109 L 191 110 L 191 112 L 186 108 L 181 111 L 174 108 L 175 106 L 174 105 Z M 193 105 L 191 108 L 195 108 L 195 107 L 193 105 Z M 260 105 L 258 107 L 261 108 L 258 114 L 259 117 Q 256 118 261 120 L 264 118 L 267 120 L 270 119 Q 271 115 267 117 Q 266 113 269 112 L 269 109 Q 266 110 267 107 L 265 107 L 263 110 L 262 110 L 263 107 L 260 105 Z M 112 106 L 109 109 L 110 114 L 114 116 Q 113 118 112 116 L 108 118 L 113 120 Q 117 121 118 118 L 122 120 L 124 114 L 124 120 L 126 119 Q 128 120 127 117 L 128 114 L 129 114 L 129 119 L 132 120 L 132 119 L 134 115 L 133 117 L 134 119 L 140 120 L 142 120 L 143 115 L 144 119 Q 143 121 146 120 L 149 113 Q 152 112 151 115 L 150 118 L 153 120 L 157 119 L 156 118 Q 157 115 154 116 Q 153 113 156 112 L 156 109 Q 153 110 154 107 Q 151 106 150 109 L 143 110 L 143 112 L 139 108 L 136 109 L 134 113 L 132 111 Q 131 108 126 109 L 124 109 Q 120 110 121 108 L 120 108 Q 121 111 119 110 L 119 112 L 119 115 L 118 112 L 115 111 Q 112 112 113 109 L 117 110 L 118 107 L 112 106 Z M 232 106 L 230 107 L 227 112 L 227 114 L 225 120 L 228 120 L 231 117 L 236 120 L 237 116 L 239 120 L 243 119 L 245 120 L 247 120 L 247 116 L 249 116 Q 247 118 251 120 L 254 119 L 256 120 L 258 120 L 257 117 L 257 115 L 258 111 Q 256 108 252 109 L 250 114 L 249 109 L 246 110 L 242 109 L 240 112 L 239 109 L 235 111 L 236 113 L 236 114 Q 233 112 234 107 L 232 106 Z M 208 109 L 206 110 L 204 113 L 204 115 L 202 116 L 207 120 L 211 120 L 214 114 L 215 117 L 214 116 L 213 119 L 218 120 L 220 120 Q 222 119 221 114 L 219 114 L 221 111 Q 219 108 214 109 L 213 112 L 212 110 L 211 110 L 208 109 Z "></path><path fill="rgb(0,0,0)" stroke="rgb(0,0,0)" stroke-width="1" opacity="0" d="M 43.5 66 L 45.5 67 L 48 66 L 50 72 L 46.5 71 Q 44.7 73.8 43 69.5 L 42 67.5 L 43.5 66 Z "></path><path fill="rgb(0,0,0)" stroke="rgb(0,0,0)" stroke-width="1" opacity="0" d="M 30.5 67 Q 36 66 37 69.5 L 38 73 Q 33.4 74.3 32 71.5 L 30.5 67 Z "></path><path fill="rgb(0,0,0)" stroke="rgb(0,0,0)" stroke-width="1" opacity="0" d="M 21.5 70 Q 24.3 71.3 22 72.5 L 22.5 74 L 24.5 73 Q 27.5 74.5 24.5 76 L 23.5 74 L 20.5 76 L 21 74.5 L 20 71.5 L 21.5 70 Z "></path><path fill="rgb(0,0,0)" stroke="rgb(0,0,0)" stroke-width="1" opacity="0" d="M 159 75 L 161 75.5 L 159 76.5 L 159 75 Z "></path><path fill="rgb(0,0,0)" stroke="rgb(0,0,0)" stroke-width="1" opacity="0" d="M 50.5 76 Q 53.8 74.9 53 77.5 L 53.5 79 Q 45.9 80.5 47 77 L 50.5 76 Z "></path><path fill="rgb(0,0,0)" stroke="rgb(0,0,0)" stroke-width="1" opacity="0" d="M 141.5 77 L 142 79.5 L 141 79.5 L 141.5 77 Z "></path><path fill="rgb(0,0,0)" stroke="rgb(0,0,0)" stroke-width="1" opacity="0" d="M 258.5 77 L 259 79.5 L 258 79.5 L 258.5 77 Z "></path><path fill="rgb(0,0,0)" stroke="rgb(0,0,0)" stroke-width="1" opacity="0" d="M 39.5 78 L 43 79.5 Q 41.3 77.9 39.5 81 L 37 79.5 L 39 79.5 L 39.5 78 Z "></path><path fill="rgb(0,0,0)" stroke="rgb(0,0,0)" stroke-width="1" opacity="0" d="M 25.5 81 Q 30.8 79.8 32 82.5 L 25.5 86 Q 20.5 83.5 25.5 81 Z "></path><path fill="rgb(0,0,0)" stroke="rgb(0,0,0)" stroke-width="1" opacity="0" d="M 166.5 109 L 169.5 110 L 171 109.5 L 170 113.5 L 171 115.5 L 168.5 116 Q 163.7 117.7 165 113.5 L 165 111.5 L 166.5 109 Z "></path><path fill="rgb(0,0,0)" stroke="rgb(0,0,0)" stroke-width="1" opacity="0" d="M 175.5 112 L 176 115.5 L 175 115.5 L 175.5 112 Z "></path><path fill="rgb(0,0,0)" stroke="rgb(0,0,0)" stroke-width="1" opacity="0" d="M 185.5 113 L 186.5 115 L 184 114.5 L 185.5 113 Z "></path><path fill="rgb(0,0,0)" stroke="rgb(0,0,0)" stroke-width="1" opacity="0" d="M 36.5 118 Q 39.8 119.2 39 123 L 37 123 Q 38.5 119.2 35.5 120 L 36.5 118 Z "></path><path fill="rgb(0,0,0)" stroke="rgb(0,0,0)" stroke-width="1" opacity="0" d="M 72.5 119 L 76 120.5 Q 77.1 123.8 74.5 123 L 72.5 119 Z "></path><path fill="rgb(87,167,213)" stroke="rgb(87,167,213)" stroke-width="1" opacity="0.9176470588235294" d="M 90.5 49 Q 97.3 47.3 99 50.5 L 100 52.5 L 97.5 56 L 95.5 57 Q 94.1 54.4 89.5 55 L 84 58.5 L 80 68.5 L 79 99.5 Q 85.2 103.8 83 116.5 L 82 119 Q 78.3 117.7 80 123.5 L 80.5 125 L 75.5 128 L 73.5 128 L 70.5 125 Q 68.3 125.8 69 123.5 L 66 117.5 L 67 115 L 57.5 113 L 44.5 113 L 40 114 L 44 121.5 L 43 123.5 L 43.5 125 L 40 126 Q 41.1 128.7 38.5 128 L 36 127.5 L 35.5 126 L 34 126.5 L 32 123.5 L 29 118.5 L 30 115 L 32 114.5 L 31.5 113 L 36.5 114 L 36.5 113 Q 33.9 113.7 35 111 L 47.5 108 L 60.5 108 L 70.5 110 L 76.5 113 L 70.5 106 Q 62.9 101.1 48.5 103 L 25 108 L 26.5 104 L 34.5 100 L 42.5 98 Q 48 99.5 49.5 97 L 70.5 97 L 72 97.5 L 76 62.5 Q 78.6 55.1 84.5 51 L 90.5 49 Z M 41 65 L 44 73 L 52 73 L 49 67 Q 47 63 41 65 Z M 29 66 L 34 74 Q 39 75 40 73 L 37 69 Q 36 65 29 66 Z M 50 75 L 46 76 L 47 79 L 48 80 L 55 80 L 54 77 Q 53 74 50 75 Z M 39 77 L 36 78 L 37 82 L 44 81 L 43 79 Q 44 75 39 77 Z M 72 112 L 70 114 L 72 114 L 72 112 Z M 37 116 Q 33 117 34 122 Q 35 125 40 124 L 41 121 L 40 120 L 40 119 L 37 118 L 37 116 Z M 72 117 L 71 120 L 74 124 Q 77 125 78 123 Q 79 119 76 120 L 76 117 L 72 117 Z "></path><path fill="rgb(87,167,213)" stroke="rgb(87,167,213)" stroke-width="1" opacity="0.9176470588235294" d="M 27.5 61 L 41.5 61 L 42.5 62 L 58.5 63 L 69 65.5 L 53 66.5 L 55 73 L 64 73.5 Q 61.5 76.1 56 75 L 57 80 L 65 82.5 L 56.5 84 L 54.5 83 L 49 84 L 48.5 91 L 45.5 85 L 39 86.5 L 42 95.5 L 41 95.5 L 36.5 87 L 28 91.5 L 30 96.5 L 28.5 96 L 21 89.5 L 13 78.5 L 12 68.5 L 14.5 65 L 17.5 63 L 27.5 61 Z M 22 69 L 19 72 Q 18 76 21 78 L 27 76 L 22 69 Z M 31 79 L 22 83 L 24 87 L 33 84 Q 34 80 31 79 Z "></path><path fill="rgb(87,167,213)" stroke="rgb(87,167,213)" stroke-width="1" opacity="0.9176470588235294" d="M 95.5 70 L 103.5 70 L 105 71.5 L 104 75 L 97 74 Q 95.9 76.7 98.5 76 L 104 79 L 105 85.5 L 101.5 89 L 92 89 L 92 84 L 94.5 84 L 98.5 85 Q 101.5 83.5 98.5 82 L 93 80 Q 91.4 77.9 92 72.5 L 95.5 70 Z "></path><path fill="rgb(87,167,213)" stroke="rgb(87,167,213)" stroke-width="1" opacity="0.9176470588235294" d="M 108 70 L 114.5 70 L 116 71.5 L 118 81 Q 121 82.3 120 78.5 L 123.5 70 L 130 70 L 130 89 L 125 89 L 125 78.5 L 124 78.5 L 122 89 L 116 89 L 116 86.5 L 113.5 80 L 113 89 L 108 88.5 L 108 70 Z "></path><path fill="rgb(87,167,213)" stroke="rgb(87,167,213)" stroke-width="1" opacity="0.9176470588235294" d="M 138.5 70 Q 144.5 68.5 146 71.5 L 151 89 L 145 89 L 144.5 86 L 138 86 L 138 89 L 132 89 L 137 71.5 L 138.5 70 Z M 142 75 L 140 78 Q 139 83 143 81 L 142 75 Z "></path><path fill="rgb(87,167,213)" stroke="rgb(87,167,213)" stroke-width="1" opacity="0.9176470588235294" d="M 153 70 L 163.5 70 L 167 73.5 L 166 80 Q 163.3 78.9 164 81.5 L 169 88.5 L 163.5 89 L 159.5 82 Q 156.5 83.6 158 89 L 153 88.5 L 153 70 Z M 158 74 Q 156 79 161 78 L 162 76 L 158 74 Z "></path><path fill="rgb(87,167,213)" stroke="rgb(87,167,213)" stroke-width="1" opacity="0.9176470588235294" d="M 170 70 L 183.5 70 L 184 74 L 180 74.5 L 180 89 L 175.5 89 L 174 87.5 L 174 74 Q 168 76 170 70 Z "></path><path fill="rgb(87,167,213)" stroke="rgb(87,167,213)" stroke-width="1" opacity="0.9176470588235294" d="M 187 70 L 192 70.5 L 192 89 L 187 88.5 L 187 70 Z "></path><path fill="rgb(87,167,213)" stroke="rgb(87,167,213)" stroke-width="1" opacity="0.9176470588235294" d="M 196 70 L 202.5 70 L 204 71.5 L 209.5 82 L 210 70 L 215 70.5 L 215 87.5 L 213.5 89 L 207 89 L 201.5 77 L 201 89 L 196 88.5 L 196 70 Z "></path><path fill="rgb(87,167,213)" stroke="rgb(87,167,213)" stroke-width="1" opacity="0.9176470588235294" d="M 225 70 Q 231.1 68.2 233 71.5 Q 233.3 78.3 236.5 82 L 240 70 L 247 70 L 247 89 L 242 89 L 242 79.5 L 241 79.5 L 239 89 L 233 89 L 233 86.5 L 230.5 79 L 230 89 L 225 88.5 L 225 70 Z "></path><path fill="rgb(87,167,213)" stroke="rgb(87,167,213)" stroke-width="1" opacity="0.9176470588235294" d="M 255 70 Q 261.1 68.2 263 71.5 L 268 89 Q 263.4 90.3 262 87.5 Q 262.6 84.8 256.5 86 L 255 89 L 249.5 89 L 249 87.5 L 255 70 Z M 259 75 L 257 80 Q 256 83 260 81 L 259 75 Z "></path><path fill="rgb(87,167,213)" stroke="rgb(87,167,213)" stroke-width="1" opacity="0.9176470588235294" d="M 271 70 L 276 70 L 276 85 L 283 85 L 283 89 L 270 89 L 270 73.5 L 271 70 Z "></path><path fill="rgb(87,167,213)" stroke="rgb(87,167,213)" stroke-width="1" opacity="0.9176470588235294" d="M 286 70 L 291 70 L 291 83.5 Q 292.9 86.8 299 85 L 298.5 89 L 286 89 L 286 70 Z "></path><path fill="rgb(87,167,213)" stroke="rgb(87,167,213)" stroke-width="1" opacity="0.9176470588235294" d="M 91 94 L 294.5 94 L 295 99 L 91.5 99 L 91 94 Z "></path><path fill="rgb(87,167,213)" stroke="rgb(87,167,213)" stroke-width="1" opacity="0.9176470588235294" d="M 260.5 105 L 262 108 Q 258.2 109.5 259 106.5 L 260.5 105 Z "></path><path fill="rgb(87,167,213)" stroke="rgb(87,167,213)" stroke-width="1" opacity="0.9176470588235294" d="M 172 106 Q 175.7 104.8 174 110 L 179 110 L 179 119 Q 175.5 120.1 177 112.5 Q 175.5 109.5 174 112.5 L 174 119 L 171.5 119 L 171 116.5 Q 170 109 172 106 Z "></path><path fill="rgb(87,167,213)" stroke="rgb(87,167,213)" stroke-width="1" opacity="0.9176470588235294" d="M 192 106 Q 195 105 194 108 Q 191 109 192 106 Z "></path><path fill="rgb(87,167,213)" stroke="rgb(87,167,213)" stroke-width="1" opacity="0.9176470588235294" d="M 111.5 107 Q 116 106 117 108.5 L 112 109 Q 110.9 111.7 113.5 111 L 118 114.5 Q 118.5 118.5 115.5 119 Q 110.3 120.3 109 117.5 L 115 117 Q 116.7 112.9 112.5 114 Q 109.3 113.3 110 108.5 L 111.5 107 Z "></path><path fill="rgb(87,167,213)" stroke="rgb(87,167,213)" stroke-width="1" opacity="0.9176470588235294" d="M 164.5 107 Q 169 106 170 108.5 Q 165.4 107.9 164 110.5 Q 162.8 115.8 165.5 117 L 170 117.5 Q 169 120 164.5 119 Q 160.3 117.7 161 111.5 L 164.5 107 Z "></path><path fill="rgb(87,167,213)" stroke="rgb(87,167,213)" stroke-width="1" opacity="0.9176470588235294" d="M 229 107 L 233 108.5 L 236 119 Q 231.5 120.5 233 116 L 229 116 L 227.5 119 Q 224.9 119.8 226 116.5 L 229 107 Z M 231 111 Q 228 115 232 114 L 231 111 Z "></path><path fill="rgb(87,167,213)" stroke="rgb(87,167,213)" stroke-width="1" opacity="0.9176470588235294" d="M 151 108 L 155 110.5 Q 155.7 113.1 153 112 L 153 117 L 156 118.5 L 152.5 119 L 149.5 111 L 147 112 L 146 119 L 144 118.5 L 144 110 L 146.5 111 L 151 110 L 151 108 Z "></path><path fill="rgb(87,167,213)" stroke="rgb(87,167,213)" stroke-width="1" opacity="0.9176470588235294" d="M 264 108 L 267 108 Q 265.9 110.7 268.5 110 L 267 112.5 L 267 117 Q 270 116 269 119 Q 265.2 120 264 117.5 L 263 110.5 L 264 108 Z "></path><path fill="rgb(87,167,213)" stroke="rgb(87,167,213)" stroke-width="1" opacity="0.9176470588235294" d="M 120 110 L 132 110 L 132 119 L 130 118.5 L 130 112 L 127 112 L 127 118.5 L 125 119 L 125 112 L 122 112 L 122 118.5 L 120 119 L 120 110 Z "></path><path fill="rgb(87,167,213)" stroke="rgb(87,167,213)" stroke-width="1" opacity="0.9176470588235294" d="M 135 110 L 141 110 L 141 116.5 L 142 119 L 139.5 118 L 135.5 119 L 134 115.5 L 139 112.5 Q 137.7 109.7 136.5 112 Q 133.9 112.7 135 110 Z M 136 115 L 136 117 Q 138 120 139 117 Q 140 113 136 115 Z "></path><path fill="rgb(87,167,213)" stroke="rgb(87,167,213)" stroke-width="1" opacity="0.9176470588235294" d="M 183.5 110 Q 188 109 189 111.5 L 190 115.5 L 187.5 119 Q 182 120 181 116.5 Q 180 111 183.5 110 Z M 186 111 Q 183 111 183 116 L 187 117 Q 188 112 186 111 Z "></path><path fill="rgb(87,167,213)" stroke="rgb(87,167,213)" stroke-width="1" opacity="0.9176470588235294" d="M 192 110 L 194 110.5 L 194 119 L 192 118.5 L 192 110 Z "></path><path fill="rgb(87,167,213)" stroke="rgb(87,167,213)" stroke-width="1" opacity="0.9176470588235294" d="M 198.5 110 Q 204.3 108.3 203 112 Q 197.8 109.9 199 114.5 Q 196.8 115.8 199.5 117 Q 204.3 115.7 203 119 Q 197.5 120.3 196 116.5 Q 195 111 198.5 110 Z "></path><path fill="rgb(87,167,213)" stroke="rgb(87,167,213)" stroke-width="1" opacity="0.9176470588235294" d="M 206.5 110 Q 211 109 212 111.5 L 212 115 L 207 115 L 207 116.5 Q 208.3 119.3 209.5 117 L 212 117.5 Q 211 120 206.5 119 Q 203.3 118.3 204 113.5 L 206.5 110 Z M 209 111 L 207 113 Q 206 115 210 114 L 209 111 Z "></path><path fill="rgb(87,167,213)" stroke="rgb(87,167,213)" stroke-width="1" opacity="0.9176470588235294" d="M 214 110 L 220 110 L 220 112 L 217.5 111 L 216.5 113 L 221 115.5 L 219.5 119 Q 212.6 121 214 117 L 216.5 118 Q 219.5 116.5 216.5 115 L 214 113.5 L 214 110 Z "></path><path fill="rgb(87,167,213)" stroke="rgb(87,167,213)" stroke-width="1" opacity="0.9176470588235294" d="M 236 110 L 239 111.5 L 239.5 116 L 241 110 Q 246.3 108.2 244 115.5 L 245 115.5 L 246 110 Q 249.3 108.7 248 113.5 L 245.5 119 Q 240.9 120.3 243 114.5 L 242 114.5 L 241 119 Q 237.3 120.5 238 117.5 L 236 110 Z "></path><path fill="rgb(87,167,213)" stroke="rgb(87,167,213)" stroke-width="1" opacity="0.9176470588235294" d="M 250 110 Q 255.4 108.5 257 111.5 L 257 118.5 L 255.5 119 L 253.5 119 Q 249.8 119.8 249 117.5 L 250.5 114 L 254 112.5 Q 252.8 109.7 251.5 112 Q 248.9 112.7 250 110 Z M 252 115 L 252 118 L 254 117 Q 255 114 252 115 Z "></path><path fill="rgb(87,167,213)" stroke="rgb(87,167,213)" stroke-width="1" opacity="0.9176470588235294" d="M 259 110 L 262 110 L 262 119 L 259 119 L 259 110 Z "></path><path fill="rgb(194,225,235)" stroke="rgb(194,225,235)" stroke-width="1" opacity="0.23921568627450981" d="M 92.5 48 Q 97.8 46.8 99 49.5 L 97.5 49 Q 91.5 50.2 92.5 48 Z "></path><path fill="rgb(194,225,235)" stroke="rgb(194,225,235)" stroke-width="1" opacity="0.23921568627450981" d="M 83.5 51 L 79 56.5 L 77.5 60 L 77 58.5 L 83.5 51 Z "></path><path fill="rgb(194,225,235)" stroke="rgb(194,225,235)" stroke-width="1" opacity="0.23921568627450981" d="M 99.5 53 L 100 54.5 L 96.5 57 L 96.5 56 L 99 54.5 L 99.5 53 Z "></path><path fill="rgb(194,225,235)" stroke="rgb(194,225,235)" stroke-width="1" opacity="0.23921568627450981" d="M 89.5 55 L 95 56.5 L 93.5 57 L 89.5 56 L 85 58.5 L 83.5 61 L 84 59.5 L 86.5 56 L 89.5 55 Z "></path><path fill="rgb(194,225,235)" stroke="rgb(194,225,235)" stroke-width="1" opacity="0.23921568627450981" d="M 29.5 60 L 32 60.5 L 29.5 61 L 29.5 60 Z "></path><path fill="rgb(194,225,235)" stroke="rgb(194,225,235)" stroke-width="1" opacity="0.23921568627450981" d="M 35.5 60 L 38 60.5 L 35.5 61 L 35.5 60 Z "></path><path fill="rgb(194,225,235)" stroke="rgb(194,225,235)" stroke-width="1" opacity="0.23921568627450981" d="M 23.5 61 L 27 61.5 L 23.5 62 L 23.5 61 Z "></path><path fill="rgb(194,225,235)" stroke="rgb(194,225,235)" stroke-width="1" opacity="0.23921568627450981" d="M 42.5 61 L 49 61.5 L 42.5 62 L 42.5 61 Z "></path><path fill="rgb(194,225,235)" stroke="rgb(194,225,235)" stroke-width="1" opacity="0.23921568627450981" d="M 51.5 62 L 57 62.5 L 51.5 63 L 51.5 62 Z "></path><path fill="rgb(194,225,235)" stroke="rgb(194,225,235)" stroke-width="1" opacity="0.23921568627450981" d="M 82.5 62 L 83 63.5 L 81.5 66 L 81 64.5 L 82.5 62 Z "></path><path fill="rgb(194,225,235)" stroke="rgb(194,225,235)" stroke-width="1" opacity="0.23921568627450981" d="M 16.5 63 L 15.5 65 L 13 66.5 L 11.5 74 L 11 68.5 L 14.5 64 L 16.5 63 Z "></path><path fill="rgb(194,225,235)" stroke="rgb(194,225,235)" stroke-width="1" opacity="0.23921568627450981" d="M 40.5 65 Q 47.3 63.3 49 66.5 L 52 72.5 L 44 73 L 40.5 65 Z M 44 66 L 42 68 L 43 70 Q 45 74 48 70 L 47 72 L 50 72 L 48 66 L 46 67 L 44 66 Z "></path><path fill="rgb(194,225,235)" stroke="rgb(194,225,235)" stroke-width="1" opacity="0.23921568627450981" d="M 69 65 Q 72 64 71 67 Q 68 68 69 65 Z "></path><path fill="rgb(194,225,235)" stroke="rgb(194,225,235)" stroke-width="1" opacity="0.23921568627450981" d="M 28.5 66 Q 35.5 64.5 37 68.5 L 34.5 67 L 30 67.5 L 32 70.5 L 30 69.5 L 28.5 66 Z "></path><path fill="rgb(194,225,235)" stroke="rgb(194,225,235)" stroke-width="1" opacity="0.23921568627450981" d="M 53.5 66 Q 56.5 65.1 55 69.5 L 54 69.5 L 53.5 66 Z "></path><path fill="rgb(194,225,235)" stroke="rgb(194,225,235)" stroke-width="1" opacity="0.23921568627450981" d="M 80.5 68 L 81 75.5 L 80 75.5 L 80.5 68 Z "></path><path fill="rgb(194,225,235)" stroke="rgb(194,225,235)" stroke-width="1" opacity="0.23921568627450981" d="M 21.5 69 L 27 76 L 25 75.5 Q 27.2 74.3 24.5 73 L 23 73.5 L 24 77 L 20.5 78 Q 18.3 76.3 19 71.5 L 21.5 69 Z M 22 70 L 20 72 L 21 75 L 23 75 L 22 73 Q 24 71 22 70 Z "></path><path fill="rgb(194,225,235)" stroke="rgb(194,225,235)" stroke-width="1" opacity="0.23921568627450981" d="M 95.5 69 L 102 69.5 L 94.5 71 L 95.5 69 Z "></path><path fill="rgb(194,225,235)" stroke="rgb(194,225,235)" stroke-width="1" opacity="0.23921568627450981" d="M 108.5 69 Q 114.5 67.5 116 70.5 L 114.5 70 L 108 70 L 108 87.5 L 107 87.5 L 107 71.5 L 106 70.5 L 108.5 69 Z "></path><path fill="rgb(194,225,235)" stroke="rgb(194,225,235)" stroke-width="1" opacity="0.23921568627450981" d="M 123.5 69 L 130 69.5 L 122.5 71 L 123.5 69 Z "></path><path fill="rgb(194,225,235)" stroke="rgb(194,225,235)" stroke-width="1" opacity="0.23921568627450981" d="M 138.5 69 Q 144.5 67.5 146 70.5 L 144.5 70 Q 139 68.5 137.5 71 L 138.5 69 Z "></path><path fill="rgb(194,225,235)" stroke="rgb(194,225,235)" stroke-width="1" opacity="0.23921568627450981" d="M 154.5 69 L 162 69.5 L 154.5 70 L 154.5 69 Z "></path><path fill="rgb(194,225,235)" stroke="rgb(194,225,235)" stroke-width="1" opacity="0.23921568627450981" d="M 170.5 69 L 183.5 69 L 185.5 71 L 189.5 69 L 189.5 70 Q 185.5 69.5 185 72.5 L 187 73 L 187 77 L 185.5 77 L 186 75.5 L 185.5 74 L 181 75 L 180.5 84 L 180 74 Q 186 76 184 70 L 170.5 70 L 169.5 71 L 170.5 69 Z "></path><path fill="rgb(194,225,235)" stroke="rgb(194,225,235)" stroke-width="1" opacity="0.23921568627450981" d="M 198.5 69 Q 205 68 206 72.5 L 207.5 76 L 210.5 69 L 214 69.5 L 210 70 L 209.5 82 L 202.5 70 Q 197.5 71 198.5 69 Z "></path><path fill="rgb(194,225,235)" stroke="rgb(194,225,235)" stroke-width="1" opacity="0.23921568627450981" d="M 226.5 69 L 231 69.5 L 226.5 70 L 226.5 69 Z "></path><path fill="rgb(194,225,235)" stroke="rgb(194,225,235)" stroke-width="1" opacity="0.23921568627450981" d="M 241.5 69 L 246 69.5 L 241.5 70 L 241.5 69 Z "></path><path fill="rgb(194,225,235)" stroke="rgb(194,225,235)" stroke-width="1" opacity="0.23921568627450981" d="M 256.5 69 Q 261.8 67.8 263 70.5 L 261.5 70 Q 255.5 71.2 256.5 69 Z "></path><path fill="rgb(194,225,235)" stroke="rgb(194,225,235)" stroke-width="1" opacity="0.23921568627450981" d="M 271.5 69 L 274 69.5 L 271 70 L 270.5 73 L 270 70.5 L 271.5 69 Z "></path><path fill="rgb(194,225,235)" stroke="rgb(194,225,235)" stroke-width="1" opacity="0.23921568627450981" d="M 286.5 69 Q 291 68 292 70.5 L 292 84 L 298.5 84 L 298.5 85 Q 292.5 86.5 291 83.5 L 291 70.5 Q 291 69.5 286.5 70 L 286.5 69 Z "></path><path fill="rgb(194,225,235)" stroke="rgb(194,225,235)" stroke-width="1" opacity="0.23921568627450981" d="M 37.5 70 Q 42 72 38.5 74 Q 33.3 75.3 32 72.5 L 33.5 73 Q 38.9 74.9 38 71.5 L 37.5 70 Z "></path><path fill="rgb(194,225,235)" stroke="rgb(194,225,235)" stroke-width="1" opacity="0.23921568627450981" d="M 74.5 70 L 75 73.5 L 74 73.5 L 74.5 70 Z "></path><path fill="rgb(194,225,235)" stroke="rgb(194,225,235)" stroke-width="1" opacity="0.23921568627450981" d="M 152.5 70 L 153 79.5 L 152 79.5 L 152.5 70 Z "></path><path fill="rgb(194,225,235)" stroke="rgb(194,225,235)" stroke-width="1" opacity="0.23921568627450981" d="M 164.5 70 L 167 71 L 166.5 73 L 164.5 70 Z "></path><path fill="rgb(194,225,235)" stroke="rgb(194,225,235)" stroke-width="1" opacity="0.23921568627450981" d="M 192.5 70 L 193 88.5 L 192 88.5 L 192.5 70 Z "></path><path fill="rgb(194,225,235)" stroke="rgb(194,225,235)" stroke-width="1" opacity="0.23921568627450981" d="M 195.5 70 L 196 84.5 L 195 84.5 L 194 80.5 L 195 79.5 L 195.5 70 Z "></path><path fill="rgb(194,225,235)" stroke="rgb(194,225,235)" stroke-width="1" opacity="0.23921568627450981" d="M 254.5 70 L 255 71.5 L 253 72.5 L 254.5 70 Z "></path><path fill="rgb(194,225,235)" stroke="rgb(194,225,235)" stroke-width="1" opacity="0.23921568627450981" d="M 55.5 71 L 60 72.5 L 55 73 L 55.5 71 Z "></path><path fill="rgb(194,225,235)" stroke="rgb(194,225,235)" stroke-width="1" opacity="0.23921568627450981" d="M 247.5 71 L 248 73.5 L 247 73.5 L 247.5 71 Z "></path><path fill="rgb(194,225,235)" stroke="rgb(194,225,235)" stroke-width="1" opacity="0.23921568627450981" d="M 276.5 71 L 277 74.5 L 276 74.5 L 276.5 71 Z "></path><path fill="rgb(194,225,235)" stroke="rgb(194,225,235)" stroke-width="1" opacity="0.23921568627450981" d="M 285.5 71 L 286 87.5 L 285 90 L 283 90 L 283 85 L 276 85 L 276 78.5 L 277 78.5 L 277.5 84 L 279.5 84 Q 283.8 83.3 284.5 86 L 285 84.5 L 285 82.5 L 285.5 71 Z "></path><path fill="rgb(194,225,235)" stroke="rgb(194,225,235)" stroke-width="1" opacity="0.23921568627450981" d="M 61.5 72 L 66 73 Q 67.3 76.3 62.5 75 L 62.5 74 L 64 73.5 Q 60.7 73.6 61.5 72 Z "></path><path fill="rgb(194,225,235)" stroke="rgb(194,225,235)" stroke-width="1" opacity="0.23921568627450981" d="M 116.5 72 L 117 74.5 L 116 74.5 L 116.5 72 Z "></path><path fill="rgb(194,225,235)" stroke="rgb(194,225,235)" stroke-width="1" opacity="0.23921568627450981" d="M 233.5 72 L 235 77.5 L 234 77.5 L 233.5 72 Z "></path><path fill="rgb(194,225,235)" stroke="rgb(194,225,235)" stroke-width="1" opacity="0.23921568627450981" d="M 238.5 73 L 239 74.5 L 237 75.5 L 238.5 73 Z "></path><path fill="rgb(194,225,235)" stroke="rgb(194,225,235)" stroke-width="1" opacity="0.23921568627450981" d="M 91.5 74 L 92 76.5 L 91 76.5 L 91.5 74 Z "></path><path fill="rgb(194,225,235)" stroke="rgb(194,225,235)" stroke-width="1" opacity="0.23921568627450981" d="M 97 74 L 102 74.5 L 97.5 76 L 97 74 Z "></path><path fill="rgb(194,225,235)" stroke="rgb(194,225,235)" stroke-width="1" opacity="0.23921568627450981" d="M 158 74 L 162 75.5 L 160.5 78 Q 155.9 79.2 158 74 Z M 159 75 L 159 77 L 161 76 L 159 75 Z "></path><path fill="rgb(194,225,235)" stroke="rgb(194,225,235)" stroke-width="1" opacity="0.23921568627450981" d="M 167.5 74 Q 170.5 75.5 167.5 77 L 167.5 74 Z "></path><path fill="rgb(194,225,235)" stroke="rgb(194,225,235)" stroke-width="1" opacity="0.23921568627450981" d="M 170.5 74 L 174 74.5 L 170.5 75 L 170.5 74 Z "></path><path fill="rgb(194,225,235)" stroke="rgb(194,225,235)" stroke-width="1" opacity="0.23921568627450981" d="M 49.5 75 Q 53.3 74.3 54 76.5 L 55 80 L 47 79.5 L 54 78.5 L 53 76 L 46.5 78 L 46 76 L 49.5 75 Z "></path><path fill="rgb(194,225,235)" stroke="rgb(194,225,235)" stroke-width="1" opacity="0.23921568627450981" d="M 134.5 75 Q 136.8 74.3 136 76.5 L 134.5 75 Z "></path><path fill="rgb(194,225,235)" stroke="rgb(194,225,235)" stroke-width="1" opacity="0.23921568627450981" d="M 141.5 75 L 142 76.5 L 141 79.5 L 142 79.5 L 142.5 78 L 143 81 Q 138.5 82.8 140 77.5 L 141.5 75 Z "></path><path fill="rgb(194,225,235)" stroke="rgb(194,225,235)" stroke-width="1" opacity="0.23921568627450981" d="M 258.5 75 L 260 81 Q 256.3 82.5 257 79.5 L 259 79.5 L 258.5 75 Z "></path><path fill="rgb(194,225,235)" stroke="rgb(194,225,235)" stroke-width="1" opacity="0.23921568627450981" d="M 264.5 75 L 265.5 77 Q 262.7 77.7 264.5 75 Z "></path><path fill="rgb(194,225,235)" stroke="rgb(194,225,235)" stroke-width="1" opacity="0.23921568627450981" d="M 118.5 76 L 117.5 78 L 118.5 76 Z "></path><path fill="rgb(194,225,235)" stroke="rgb(194,225,235)" stroke-width="1" opacity="0.23921568627450981" d="M 120.5 76 L 121 77.5 L 120 81 Q 117.3 82.1 118 79.5 L 120.5 76 Z "></path><path fill="rgb(194,225,235)" stroke="rgb(194,225,235)" stroke-width="1" opacity="0.23921568627450981" d="M 247 76 L 249 76.5 L 248 77.5 L 247.5 86 L 247 76 Z "></path><path fill="rgb(194,225,235)" stroke="rgb(194,225,235)" stroke-width="1" opacity="0.23921568627450981" d="M 38.5 77 Q 43.9 75.1 43 78.5 L 44 81 L 37 82 L 36 78 L 38.5 77 Z M 40 78 L 38 81 L 40 81 Q 43 80 40 78 Z "></path><path fill="rgb(194,225,235)" stroke="rgb(194,225,235)" stroke-width="1" opacity="0.23921568627450981" d="M 101.5 77 L 105 79.5 L 104.5 81 L 104 79 L 101.5 77 Z "></path><path fill="rgb(194,225,235)" stroke="rgb(194,225,235)" stroke-width="1" opacity="0.23921568627450981" d="M 201.5 77 L 206 85.5 L 204 84.5 L 203 81 Q 199.2 82.2 201.5 77 Z "></path><path fill="rgb(194,225,235)" stroke="rgb(194,225,235)" stroke-width="1" opacity="0.23921568627450981" d="M 236.5 77 Q 238.8 76.3 238 78.5 L 236.5 77 Z "></path><path fill="rgb(194,225,235)" stroke="rgb(194,225,235)" stroke-width="1" opacity="0.23921568627450981" d="M 73.5 78 L 74 86.5 L 73 86.5 L 73.5 78 Z "></path><path fill="rgb(194,225,235)" stroke="rgb(194,225,235)" stroke-width="1" opacity="0.23921568627450981" d="M 124.5 78 L 125 86.5 L 124 86.5 L 123 81.5 L 124.5 78 Z "></path><path fill="rgb(194,225,235)" stroke="rgb(194,225,235)" stroke-width="1" opacity="0.23921568627450981" d="M 130.5 78 L 131 82.5 L 130 82.5 L 130.5 78 Z "></path><path fill="rgb(194,225,235)" stroke="rgb(194,225,235)" stroke-width="1" opacity="0.23921568627450981" d="M 265.5 78 L 267 82.5 L 266 82.5 L 265.5 78 Z "></path><path fill="rgb(194,225,235)" stroke="rgb(194,225,235)" stroke-width="1" opacity="0.23921568627450981" d="M 269.5 78 L 270 80.5 L 270 82.5 L 269.5 84 L 268 81.5 L 269.5 78 Z "></path><path fill="rgb(194,225,235)" stroke="rgb(194,225,235)" stroke-width="1" opacity="0.23921568627450981" d="M 13.5 79 L 14.5 81 L 13.5 79 Z "></path><path fill="rgb(194,225,235)" stroke="rgb(194,225,235)" stroke-width="1" opacity="0.23921568627450981" d="M 30.5 79 Q 33.8 80.2 33 84 L 24 87 L 23 84.5 L 23.5 83 L 22 82.5 L 24.5 81 L 24 84.5 L 25.5 86 L 32 82.5 L 27 80.5 L 30.5 79 Z "></path><path fill="rgb(194,225,235)" stroke="rgb(194,225,235)" stroke-width="1" opacity="0.23921568627450981" d="M 57.5 79 L 61 80.5 L 59.5 81 L 57.5 79 Z "></path><path fill="rgb(194,225,235)" stroke="rgb(194,225,235)" stroke-width="1" opacity="0.23921568627450981" d="M 80.5 79 L 81 83.5 L 80 83.5 L 80.5 79 Z "></path><path fill="rgb(194,225,235)" stroke="rgb(194,225,235)" stroke-width="1" opacity="0.23921568627450981" d="M 230.5 79 L 232 83.5 L 230.5 86 L 230.5 79 Z "></path><path fill="rgb(194,225,235)" stroke="rgb(194,225,235)" stroke-width="1" opacity="0.23921568627450981" d="M 235.5 79 L 237 81.5 L 235 80.5 L 235.5 79 Z "></path><path fill="rgb(194,225,235)" stroke="rgb(194,225,235)" stroke-width="1" opacity="0.23921568627450981" d="M 241.5 79 L 242 82.5 L 240 83.5 L 241.5 79 Z "></path><path fill="rgb(194,225,235)" stroke="rgb(194,225,235)" stroke-width="1" opacity="0.23921568627450981" d="M 251.5 79 L 252 80.5 L 249.5 85 L 250 83.5 L 251.5 79 Z "></path><path fill="rgb(194,225,235)" stroke="rgb(194,225,235)" stroke-width="1" opacity="0.23921568627450981" d="M 113.5 80 L 115 84.5 L 113 83.5 L 113.5 80 Z "></path><path fill="rgb(194,225,235)" stroke="rgb(194,225,235)" stroke-width="1" opacity="0.23921568627450981" d="M 164.5 80 L 167 83.5 L 164 81.5 L 164.5 80 Z "></path><path fill="rgb(194,225,235)" stroke="rgb(194,225,235)" stroke-width="1" opacity="0.23921568627450981" d="M 133.5 81 L 134 82.5 L 132.5 86 L 132 83.5 L 133.5 81 Z "></path><path fill="rgb(194,225,235)" stroke="rgb(194,225,235)" stroke-width="1" opacity="0.23921568627450981" d="M 15.5 82 L 21 88.5 L 16 84.5 L 15.5 82 Z "></path><path fill="rgb(194,225,235)" stroke="rgb(194,225,235)" stroke-width="1" opacity="0.23921568627450981" d="M 65.5 82 L 64.5 84 L 58 84 L 58 86.5 L 57 86.5 L 55.5 84 L 54 83.5 L 55.5 83 L 57.5 84 L 65.5 82 Z "></path><path fill="rgb(194,225,235)" stroke="rgb(194,225,235)" stroke-width="1" opacity="0.23921568627450981" d="M 98.5 82 Q 101.5 83.5 98.5 85 L 92 84 L 91.5 89 L 91 83 L 98.5 84 L 98.5 82 Z "></path><path fill="rgb(194,225,235)" stroke="rgb(194,225,235)" stroke-width="1" opacity="0.23921568627450981" d="M 159.5 82 L 161 84.5 L 159 84.5 L 158.5 89 L 158 83.5 L 159.5 82 Z "></path><path fill="rgb(194,225,235)" stroke="rgb(194,225,235)" stroke-width="1" opacity="0.23921568627450981" d="M 152.5 84 L 153 87.5 L 152 87.5 L 152.5 84 Z "></path><path fill="rgb(194,225,235)" stroke="rgb(194,225,235)" stroke-width="1" opacity="0.23921568627450981" d="M 202.5 84 L 203 86.5 L 200.5 90 L 197.5 91 L 196.5 89 Q 202.3 91.1 201 86.5 L 202.5 84 Z "></path><path fill="rgb(194,225,235)" stroke="rgb(194,225,235)" stroke-width="1" opacity="0.23921568627450981" d="M 42.5 85 L 46 85.5 L 42.5 86 L 42.5 85 Z "></path><path fill="rgb(194,225,235)" stroke="rgb(194,225,235)" stroke-width="1" opacity="0.23921568627450981" d="M 167.5 85 L 170.5 89 L 169 89.5 L 169.5 91 L 165 89.5 L 169 88.5 L 167.5 85 Z "></path><path fill="rgb(194,225,235)" stroke="rgb(194,225,235)" stroke-width="1" opacity="0.23921568627450981" d="M 104.5 86 L 102.5 89 L 104.5 86 Z "></path><path fill="rgb(194,225,235)" stroke="rgb(194,225,235)" stroke-width="1" opacity="0.23921568627450981" d="M 114.5 86 Q 117.5 85.2 116 89 L 121.5 89 L 121.5 90 L 116 91 L 114.5 86 Z "></path><path fill="rgb(194,225,235)" stroke="rgb(194,225,235)" stroke-width="1" opacity="0.23921568627450981" d="M 140.5 86 L 143 86.5 L 140.5 87 L 140.5 86 Z "></path><path fill="rgb(194,225,235)" stroke="rgb(194,225,235)" stroke-width="1" opacity="0.23921568627450981" d="M 239.5 86 L 240.5 89 L 242.5 89 Q 246.9 87.5 246 90.5 L 244.5 90 L 241.5 89 L 239 90 L 239.5 86 Z "></path><path fill="rgb(194,225,235)" stroke="rgb(194,225,235)" stroke-width="1" opacity="0.23921568627450981" d="M 249.5 86 L 249 87.5 L 250 89.5 L 249.5 92 Q 246.3 90.8 247 87 L 249.5 86 Z "></path><path fill="rgb(194,225,235)" stroke="rgb(194,225,235)" stroke-width="1" opacity="0.23921568627450981" d="M 259.5 86 L 262 86.5 L 259.5 87 L 259.5 86 Z "></path><path fill="rgb(194,225,235)" stroke="rgb(194,225,235)" stroke-width="1" opacity="0.23921568627450981" d="M 36.5 87 L 40 92.5 L 38 91.5 L 36.5 87 Z "></path><path fill="rgb(194,225,235)" stroke="rgb(194,225,235)" stroke-width="1" opacity="0.23921568627450981" d="M 130.5 87 Q 132.8 86.3 132 88.5 L 132.5 90 L 130.5 87 Z "></path><path fill="rgb(194,225,235)" stroke="rgb(194,225,235)" stroke-width="1" opacity="0.23921568627450981" d="M 255.5 87 L 256 88.5 Q 255.3 90.8 251.5 90 L 251.5 89 Q 256 90.3 255.5 87 Z "></path><path fill="rgb(194,225,235)" stroke="rgb(194,225,235)" stroke-width="1" opacity="0.23921568627450981" d="M 34.5 88 L 34 89.5 Q 34.9 92.5 30.5 91 L 29 93.5 L 30 95.5 L 29.5 97 Q 31.8 96.3 31 98.5 L 29.5 98 Q 27.3 98.8 28 96.5 L 29 94.5 L 28 91.5 L 34.5 88 Z "></path><path fill="rgb(194,225,235)" stroke="rgb(194,225,235)" stroke-width="1" opacity="0.23921568627450981" d="M 47.5 88 L 46.5 90 L 47.5 88 Z "></path><path fill="rgb(194,225,235)" stroke="rgb(194,225,235)" stroke-width="1" opacity="0.23921568627450981" d="M 79.5 88 L 80 96.5 L 81 97.5 L 79 98 L 79.5 88 Z "></path><path fill="rgb(194,225,235)" stroke="rgb(194,225,235)" stroke-width="1" opacity="0.23921568627450981" d="M 174.5 88 L 179 89.5 L 175.5 91 L 174.5 88 Z "></path><path fill="rgb(194,225,235)" stroke="rgb(194,225,235)" stroke-width="1" opacity="0.23921568627450981" d="M 214.5 88 L 215 90 L 208.5 90 L 207.5 91 L 208.5 89 Q 213.3 90.3 214.5 88 Z "></path><path fill="rgb(194,225,235)" stroke="rgb(194,225,235)" stroke-width="1" opacity="0.23921568627450981" d="M 261.5 88 L 265 89.5 L 263.5 90 L 261.5 88 Z "></path><path fill="rgb(194,225,235)" stroke="rgb(194,225,235)" stroke-width="1" opacity="0.23921568627450981" d="M 268.5 88 L 266.5 91 L 266 89 L 268.5 88 Z "></path><path fill="rgb(194,225,235)" stroke="rgb(194,225,235)" stroke-width="1" opacity="0.23921568627450981" d="M 49.5 89 L 50 92 L 48 91.5 L 49.5 89 Z "></path><path fill="rgb(194,225,235)" stroke="rgb(194,225,235)" stroke-width="1" opacity="0.23921568627450981" d="M 93.5 89 L 101 89.5 L 93.5 90 L 93.5 89 Z "></path><path fill="rgb(194,225,235)" stroke="rgb(194,225,235)" stroke-width="1" opacity="0.23921568627450981" d="M 108.5 89 L 112 89.5 L 108.5 90 L 108.5 89 Z "></path><path fill="rgb(194,225,235)" stroke="rgb(194,225,235)" stroke-width="1" opacity="0.23921568627450981" d="M 127.5 89 L 130 89.5 L 127.5 90 L 127.5 89 Z "></path><path fill="rgb(194,225,235)" stroke="rgb(194,225,235)" stroke-width="1" opacity="0.23921568627450981" d="M 134.5 89 Q 138.3 88.3 139 90.5 L 137.5 90 Q 133.5 90.8 134.5 89 Z "></path><path fill="rgb(194,225,235)" stroke="rgb(194,225,235)" stroke-width="1" opacity="0.23921568627450981" d="M 146.5 89 L 150 89.5 L 146.5 90 L 146.5 89 Z "></path><path fill="rgb(194,225,235)" stroke="rgb(194,225,235)" stroke-width="1" opacity="0.23921568627450981" d="M 156.5 89 L 155.5 91 L 156.5 89 Z "></path><path fill="rgb(194,225,235)" stroke="rgb(194,225,235)" stroke-width="1" opacity="0.23921568627450981" d="M 187.5 89 L 191 89.5 Q 189.8 92.3 188.5 90 L 187.5 89 Z "></path><path fill="rgb(194,225,235)" stroke="rgb(194,225,235)" stroke-width="1" opacity="0.23921568627450981" d="M 235.5 89 L 238 90.5 L 236.5 90 L 235.5 89 Z "></path><path fill="rgb(194,225,235)" stroke="rgb(194,225,235)" stroke-width="1" opacity="0.23921568627450981" d="M 271.5 89 L 282 89.5 Q 280.8 92.3 279.5 90 L 271.5 90 L 271.5 89 Z "></path><path fill="rgb(194,225,235)" stroke="rgb(194,225,235)" stroke-width="1" opacity="0.23921568627450981" d="M 286.5 89 L 299 89.5 L 295.5 91 L 293.5 90 L 291.5 90 Q 285.5 91.3 286.5 89 Z "></path><path fill="rgb(194,225,235)" stroke="rgb(194,225,235)" stroke-width="1" opacity="0.23921568627450981" d="M 21.5 90 L 26.5 96 L 21.5 90 Z "></path><path fill="rgb(194,225,235)" stroke="rgb(194,225,235)" stroke-width="1" opacity="0.23921568627450981" d="M 166.5 92 L 167.5 93 L 185 93.5 L 135.5 94 L 135.5 93 L 165.5 93 L 166.5 92 Z "></path><path fill="rgb(194,225,235)" stroke="rgb(194,225,235)" stroke-width="1" opacity="0.23921568627450981" d="M 270.5 92 L 271.5 93 L 287 93.5 L 268.5 94 L 268.5 93 L 270.5 92 Z "></path><path fill="rgb(194,225,235)" stroke="rgb(194,225,235)" stroke-width="1" opacity="0.23921568627450981" d="M 292.5 92 L 296 94.5 Q 297 99 294.5 100 L 91.5 100 L 90 98.5 L 90.5 94 L 91 99 L 294.5 99 L 295 94 L 288 93.5 L 292.5 92 Z "></path><path fill="rgb(194,225,235)" stroke="rgb(194,225,235)" stroke-width="1" opacity="0.23921568627450981" d="M 93.5 93 L 134 93.5 L 93.5 94 L 93.5 93 Z "></path><path fill="rgb(194,225,235)" stroke="rgb(194,225,235)" stroke-width="1" opacity="0.23921568627450981" d="M 186.5 93 L 243 93.5 L 186.5 94 L 186.5 93 Z "></path><path fill="rgb(194,225,235)" stroke="rgb(194,225,235)" stroke-width="1" opacity="0.23921568627450981" d="M 244.5 93 L 259 93.5 L 244.5 94 L 244.5 93 Z "></path><path fill="rgb(194,225,235)" stroke="rgb(194,225,235)" stroke-width="1" opacity="0.23921568627450981" d="M 260.5 93 L 267 93.5 L 260.5 94 L 260.5 93 Z "></path><path fill="rgb(194,225,235)" stroke="rgb(194,225,235)" stroke-width="1" opacity="0.23921568627450981" d="M 42.5 95 L 43 97.5 Q 41.5 100.5 40 97.5 L 42 97.5 L 42.5 95 Z "></path><path fill="rgb(194,225,235)" stroke="rgb(194,225,235)" stroke-width="1" opacity="0.23921568627450981" d="M 54.5 95 L 55.5 96 L 69 96.5 L 51.5 97 L 51.5 96 L 54.5 95 Z "></path><path fill="rgb(194,225,235)" stroke="rgb(194,225,235)" stroke-width="1" opacity="0.23921568627450981" d="M 44.5 97 L 49 97.5 L 44.5 98 L 44.5 97 Z "></path><path fill="rgb(194,225,235)" stroke="rgb(194,225,235)" stroke-width="1" opacity="0.23921568627450981" d="M 35.5 99 L 38 99.5 L 35.5 100 L 35.5 99 Z "></path><path fill="rgb(194,225,235)" stroke="rgb(194,225,235)" stroke-width="1" opacity="0.23921568627450981" d="M 79.5 99 Q 81.8 98.3 81 100.5 L 83 100.5 L 83 102.5 L 82.5 105 L 79.5 99 Z "></path><path fill="rgb(194,225,235)" stroke="rgb(194,225,235)" stroke-width="1" opacity="0.23921568627450981" d="M 32.5 100 L 34 100.5 L 31.5 102 L 32.5 100 Z "></path><path fill="rgb(194,225,235)" stroke="rgb(194,225,235)" stroke-width="1" opacity="0.23921568627450981" d="M 28.5 102 L 30 102.5 L 25.5 105 L 26.5 103 L 28.5 102 Z "></path><path fill="rgb(194,225,235)" stroke="rgb(194,225,235)" stroke-width="1" opacity="0.23921568627450981" d="M 48.5 103 L 54 103.5 L 48.5 104 L 48.5 103 Z "></path><path fill="rgb(194,225,235)" stroke="rgb(194,225,235)" stroke-width="1" opacity="0.23921568627450981" d="M 59.5 103 L 63 103.5 L 59.5 104 L 59.5 103 Z "></path><path fill="rgb(194,225,235)" stroke="rgb(194,225,235)" stroke-width="1" opacity="0.23921568627450981" d="M 42.5 104 L 47 104.5 L 42.5 105 L 42.5 104 Z "></path><path fill="rgb(194,225,235)" stroke="rgb(194,225,235)" stroke-width="1" opacity="0.23921568627450981" d="M 37.5 105 L 40 105.5 L 37 106 Q 38.1 108.7 35.5 108 L 33 106.5 L 37.5 105 Z "></path><path fill="rgb(194,225,235)" stroke="rgb(194,225,235)" stroke-width="1" opacity="0.23921568627450981" d="M 67 105 Q 73.8 106 77 112.5 L 75 113.5 L 78 115.5 L 76.5 115 L 73 113.5 L 75 112.5 L 71 110.5 L 71 108.5 Q 71.8 106.3 69.5 107 L 67 106.5 L 67 105 Z "></path><path fill="rgb(194,225,235)" stroke="rgb(194,225,235)" stroke-width="1" opacity="0.23921568627450981" d="M 192.5 105 L 195 106.5 L 194.5 108 L 194 106 Q 191.3 104.9 192 107.5 L 191 107.5 L 192.5 105 Z "></path><path fill="rgb(194,225,235)" stroke="rgb(194,225,235)" stroke-width="1" opacity="0.23921568627450981" d="M 259.5 105 L 258.5 107 L 259.5 105 Z "></path><path fill="rgb(194,225,235)" stroke="rgb(194,225,235)" stroke-width="1" opacity="0.23921568627450981" d="M 261.5 105 L 263.5 108 L 266.5 107 L 266.5 108 Q 263.2 106.9 264 109.5 L 263 111.5 L 264 113.5 L 263.5 116 L 262 116 L 262 110.5 L 260.5 110 L 262 107.5 L 261.5 105 Z "></path><path fill="rgb(194,225,235)" stroke="rgb(194,225,235)" stroke-width="1" opacity="0.23921568627450981" d="M 48.5 106 L 60 107.5 L 44.5 109 L 44.5 108 L 48.5 106 Z "></path><path fill="rgb(194,225,235)" stroke="rgb(194,225,235)" stroke-width="1" opacity="0.23921568627450981" d="M 83.5 106 L 84 116.5 L 81 123.5 L 82 124.5 L 78.5 128 L 77 127.5 L 81 124.5 L 80 119 Q 82.7 120.1 82 117.5 L 83 116.5 L 83.5 106 Z "></path><path fill="rgb(194,225,235)" stroke="rgb(194,225,235)" stroke-width="1" opacity="0.23921568627450981" d="M 111.5 106 L 115 106.5 L 110 108.5 Q 109.3 113.3 112.5 114 Q 116.7 112.9 115 117 L 113 116.5 L 113.5 115 L 110 113.5 L 109 108.5 L 111.5 106 Z "></path><path fill="rgb(194,225,235)" stroke="rgb(194,225,235)" stroke-width="1" opacity="0.23921568627450981" d="M 165.5 106 L 168 106.5 L 165.5 107 L 165.5 106 Z "></path><path fill="rgb(194,225,235)" stroke="rgb(194,225,235)" stroke-width="1" opacity="0.23921568627450981" d="M 171.5 106 L 172 107.5 L 168.5 110 L 168.5 109 L 170 108.5 L 169.5 107 L 171 107.5 L 171.5 106 Z "></path><path fill="rgb(194,225,235)" stroke="rgb(194,225,235)" stroke-width="1" opacity="0.23921568627450981" d="M 231.5 106 L 234 107 L 233.5 111 L 231.5 106 Z "></path><path fill="rgb(194,225,235)" stroke="rgb(194,225,235)" stroke-width="1" opacity="0.23921568627450981" d="M 29.5 107 L 31 107.5 L 28.5 109 L 29.5 107 Z "></path><path fill="rgb(194,225,235)" stroke="rgb(194,225,235)" stroke-width="1" opacity="0.23921568627450981" d="M 116.5 107 Q 118.8 106.3 118 108.5 L 116 109.5 L 116.5 107 Z "></path><path fill="rgb(194,225,235)" stroke="rgb(194,225,235)" stroke-width="1" opacity="0.23921568627450981" d="M 120.5 107 L 121 109 L 124.5 108 L 131 109.5 L 120 110 L 120 118.5 L 121.5 119 L 123 118.5 L 120.5 120 L 117.5 118 Q 116.8 120.8 112.5 120 L 112.5 119 Q 117.6 119.6 119 116.5 L 119 114.5 L 118 110.5 L 120 110 L 120.5 107 Z "></path><path fill="rgb(194,225,235)" stroke="rgb(194,225,235)" stroke-width="1" opacity="0.23921568627450981" d="M 151.5 107 L 154 107 Q 153 110 156 109 L 156 111.5 Q 153.3 112.6 154 116 L 156.5 115 L 156 116.5 L 156.5 118 L 159 116.5 Q 156.8 121.3 154.5 117 L 153 117 L 153 112 Q 155.7 113.1 155 110.5 L 151 108 Q 152.3 111.3 147.5 110 L 145.5 110 L 144 110.5 L 144 117.5 L 143 117.5 L 142.5 115 L 141.5 117 L 141 111.5 Q 143 108 149.5 109 L 151.5 107 Z "></path><path fill="rgb(194,225,235)" stroke="rgb(194,225,235)" stroke-width="1" opacity="0.23921568627450981" d="M 163.5 107 L 162.5 109 L 161 108.5 L 163.5 107 Z "></path><path fill="rgb(194,225,235)" stroke="rgb(194,225,235)" stroke-width="1" opacity="0.23921568627450981" d="M 175.5 107 L 175.5 109 L 179.5 108 L 180.5 111 L 186.5 107 L 186.5 109 L 190.5 112 L 191.5 110 L 192 119 L 195 119.5 L 192.5 120 L 190.5 116 L 187.5 120 Q 181.4 121.3 182 118.5 L 179 117.5 L 179 110 L 174 110 L 174 108.5 L 175.5 107 Z M 184 110 L 180 113 L 181 117 Q 182 120 188 119 L 191 115 L 189 112 Q 188 109 184 110 Z M 176 112 L 175 116 L 176 116 L 176 112 Z "></path><path fill="rgb(194,225,235)" stroke="rgb(194,225,235)" stroke-width="1" opacity="0.23921568627450981" d="M 61.5 108 L 66 108.5 L 61.5 109 L 61.5 108 Z "></path><path fill="rgb(194,225,235)" stroke="rgb(194,225,235)" stroke-width="1" opacity="0.23921568627450981" d="M 138.5 108 L 139.5 110 L 135 110 L 135 115 L 133.5 115 L 132.5 118 L 132 115.5 L 132.5 112 L 134 112.5 L 135.5 109 L 138.5 108 Z "></path><path fill="rgb(194,225,235)" stroke="rgb(194,225,235)" stroke-width="1" opacity="0.23921568627450981" d="M 202.5 108 L 201.5 110 Q 196.8 109.3 196 112.5 Q 195 118 198.5 119 L 202 119.5 L 198.5 120 L 196 119 L 195.5 117 L 194 117.5 Q 195.7 111.2 193 109.5 L 195 110.5 L 195.5 112 L 196 110 L 202.5 108 Z "></path><path fill="rgb(194,225,235)" stroke="rgb(194,225,235)" stroke-width="1" opacity="0.23921568627450981" d="M 228.5 108 L 229 109.5 L 228 113 L 226 112.5 L 228.5 108 Z "></path><path fill="rgb(194,225,235)" stroke="rgb(194,225,235)" stroke-width="1" opacity="0.23921568627450981" d="M 244.5 108 L 244.5 110 L 249 109 L 249.5 114 L 250 112 L 252.5 111 L 253.5 113 L 247 116 L 248 110 Q 245 108.8 246 112.5 L 244.5 116 L 244 110 Q 240.2 108.5 241 111.5 L 239.5 116 L 239 112.5 L 241.5 109 L 244.5 108 Z "></path><path fill="rgb(194,225,235)" stroke="rgb(194,225,235)" stroke-width="1" opacity="0.23921568627450981" d="M 37.5 109 L 42 109.5 L 35 111 Q 33.9 113.7 36.5 113 L 36.5 114 L 30 115 L 29 118.5 L 32 125 Q 34.7 123.9 34 126.5 L 29 122.5 L 28 117.5 L 29 114 Q 32.8 115.5 32 112.5 L 33.5 110 L 35.5 110 L 37.5 109 Z "></path><path fill="rgb(194,225,235)" stroke="rgb(194,225,235)" stroke-width="1" opacity="0.23921568627450981" d="M 67.5 109 L 70 109.5 L 67.5 110 L 67.5 109 Z "></path><path fill="rgb(194,225,235)" stroke="rgb(194,225,235)" stroke-width="1" opacity="0.23921568627450981" d="M 165.5 109 L 165 110.5 L 167 113.5 L 165 113.5 Q 163.7 117.7 168.5 116 L 168.5 114 L 171.5 118 L 169.5 119 L 169.5 117 Q 165 118 164 115.5 L 165 112.5 L 164 110.5 L 165.5 109 Z "></path><path fill="rgb(194,225,235)" stroke="rgb(194,225,235)" stroke-width="1" opacity="0.23921568627450981" d="M 207.5 109 L 210 109.5 L 207.5 110 L 207.5 109 Z "></path><path fill="rgb(194,225,235)" stroke="rgb(194,225,235)" stroke-width="1" opacity="0.23921568627450981" d="M 214.5 109 Q 219.8 107.8 221 110.5 L 220 112.5 L 221 114.5 L 220 114.5 L 219.5 113 L 217.5 113 L 216 112.5 Q 217.3 109.7 218.5 112 Q 221.1 112.7 220 110 L 214.5 110 L 214.5 109 Z "></path><path fill="rgb(194,225,235)" stroke="rgb(194,225,235)" stroke-width="1" opacity="0.23921568627450981" d="M 236.5 109 Q 239.8 107.9 239 110.5 L 237.5 110 Q 235.3 109.3 236 111.5 L 235 113.5 L 237 113.5 L 235.5 117 L 234 112.5 L 236.5 109 Z "></path><path fill="rgb(194,225,235)" stroke="rgb(194,225,235)" stroke-width="1" opacity="0.23921568627450981" d="M 251.5 109 Q 257.3 108.2 259 111.5 L 257.5 111 L 251.5 110 L 251.5 109 Z "></path><path fill="rgb(194,225,235)" stroke="rgb(194,225,235)" stroke-width="1" opacity="0.23921568627450981" d="M 203.5 110 L 206 110.5 L 203.5 114 L 204 112.5 L 203.5 110 Z "></path><path fill="rgb(194,225,235)" stroke="rgb(194,225,235)" stroke-width="1" opacity="0.23921568627450981" d="M 137.5 111 L 138.5 113 L 136.5 114 L 136 112.5 L 137.5 111 Z "></path><path fill="rgb(194,225,235)" stroke="rgb(194,225,235)" stroke-width="1" opacity="0.23921568627450981" d="M 149.5 111 L 150.5 113 L 147 114.5 Q 148 119 145.5 120 L 144 119.5 L 146 119 L 147 112 L 149.5 111 Z "></path><path fill="rgb(194,225,235)" stroke="rgb(194,225,235)" stroke-width="1" opacity="0.23921568627450981" d="M 175.5 111 Q 178.5 112.5 177 118.5 L 176 118.5 Q 176.7 115.9 174 117 L 174 112.5 L 175.5 111 Z "></path><path fill="rgb(194,225,235)" stroke="rgb(194,225,235)" stroke-width="1" opacity="0.23921568627450981" d="M 185.5 111 L 187 113.5 L 184 114.5 L 187 115 Q 188.3 118 184.5 117 L 183 113.5 L 185.5 111 Z "></path><path fill="rgb(194,225,235)" stroke="rgb(194,225,235)" stroke-width="1" opacity="0.23921568627450981" d="M 208.5 111 L 210 114 Q 206.2 115.5 207 112.5 L 208.5 111 Z "></path><path fill="rgb(194,225,235)" stroke="rgb(194,225,235)" stroke-width="1" opacity="0.23921568627450981" d="M 213.5 111 L 215.5 115 L 218 116.5 Q 216.5 119.5 215 116.5 L 213.5 114 L 211.5 117 L 209 116 L 208.5 118 L 207 115 L 212 115 L 212 112.5 L 213.5 111 Z "></path><path fill="rgb(194,225,235)" stroke="rgb(194,225,235)" stroke-width="1" opacity="0.23921568627450981" d="M 230.5 111 L 232 114 L 230 113.5 L 230.5 111 Z "></path><path fill="rgb(194,225,235)" stroke="rgb(194,225,235)" stroke-width="1" opacity="0.23921568627450981" d="M 268.5 111 L 267.5 113 L 268.5 111 Z "></path><path fill="rgb(194,225,235)" stroke="rgb(194,225,235)" stroke-width="1" opacity="0.23921568627450981" d="M 71.5 112 L 72 114 L 70 113.5 L 71.5 112 Z "></path><path fill="rgb(194,225,235)" stroke="rgb(194,225,235)" stroke-width="1" opacity="0.23921568627450981" d="M 116.5 112 Q 118.8 111.3 118 113.5 L 116.5 112 Z "></path><path fill="rgb(194,225,235)" stroke="rgb(194,225,235)" stroke-width="1" opacity="0.23921568627450981" d="M 122 112 L 125 112 L 125 119.5 L 124 119.5 L 123.5 114 L 122 114.5 L 122 112 Z "></path><path fill="rgb(194,225,235)" stroke="rgb(194,225,235)" stroke-width="1" opacity="0.23921568627450981" d="M 127 112 L 130 112 L 130 118.5 L 129 118.5 L 129 114 Q 126 115 127 112 Z "></path><path fill="rgb(194,225,235)" stroke="rgb(194,225,235)" stroke-width="1" opacity="0.23921568627450981" d="M 169.5 112 L 170.5 114 L 169.5 112 Z "></path><path fill="rgb(194,225,235)" stroke="rgb(194,225,235)" stroke-width="1" opacity="0.23921568627450981" d="M 199.5 112 L 202 113.5 L 200.5 113 L 199.5 112 Z "></path><path fill="rgb(194,225,235)" stroke="rgb(194,225,235)" stroke-width="1" opacity="0.23921568627450981" d="M 44.5 113 L 57.5 113 L 66.5 115 L 68 114.5 L 66 118.5 L 69 125 L 73 127.5 L 71.5 128 L 67 123.5 L 63.5 115 L 45.5 114 L 42 115 L 45 120.5 L 45 124 Q 42.3 125.1 43 122.5 L 43 120.5 L 40 114 L 44.5 113 Z "></path><path fill="rgb(194,225,235)" stroke="rgb(194,225,235)" stroke-width="1" opacity="0.23921568627450981" d="M 258.5 113 L 259 114.5 L 257 115.5 L 258.5 113 Z "></path><path fill="rgb(194,225,235)" stroke="rgb(194,225,235)" stroke-width="1" opacity="0.23921568627450981" d="M 160.5 114 L 164.5 119 L 168 119.5 L 164.5 120 Q 160.4 117.7 160.5 114 Z "></path><path fill="rgb(194,225,235)" stroke="rgb(194,225,235)" stroke-width="1" opacity="0.23921568627450981" d="M 242.5 114 L 243 118.5 Q 242.3 120.8 238.5 120 L 237 117.5 L 238 117.5 Q 237.2 120.5 241 119 L 242.5 114 Z "></path><path fill="rgb(194,225,235)" stroke="rgb(194,225,235)" stroke-width="1" opacity="0.23921568627450981" d="M 136 115 Q 139.8 113.5 139 116.5 Q 137.5 119.5 136 116.5 L 136 115 Z "></path><path fill="rgb(194,225,235)" stroke="rgb(194,225,235)" stroke-width="1" opacity="0.23921568627450981" d="M 198.5 115 L 201 116.5 L 199.5 117 L 198.5 115 Z "></path><path fill="rgb(194,225,235)" stroke="rgb(194,225,235)" stroke-width="1" opacity="0.23921568627450981" d="M 202.5 115 Q 204.8 114.3 204 116.5 Q 205 120 210.5 119 L 212 118.5 Q 211 121 206.5 120 L 202.5 115 Z "></path><path fill="rgb(194,225,235)" stroke="rgb(194,225,235)" stroke-width="1" opacity="0.23921568627450981" d="M 252 115 Q 254.7 113.9 254 116.5 L 252 117.5 L 252 115 Z "></path><path fill="rgb(194,225,235)" stroke="rgb(194,225,235)" stroke-width="1" opacity="0.23921568627450981" d="M 36.5 116 L 37 118 L 40 118.5 L 39.5 120 L 41 120.5 L 39.5 124 Q 34.8 124.8 34 121.5 Q 33.3 116.8 36.5 116 Z M 37 118 L 36 120 Q 38 119 37 123 L 39 123 Q 40 119 37 118 Z "></path><path fill="rgb(194,225,235)" stroke="rgb(194,225,235)" stroke-width="1" opacity="0.23921568627450981" d="M 213.5 116 L 214 118.5 L 213 118.5 L 213.5 116 Z "></path><path fill="rgb(194,225,235)" stroke="rgb(194,225,235)" stroke-width="1" opacity="0.23921568627450981" d="M 229 116 Q 234.2 113.9 233 118.5 L 229.5 118 L 227 119.5 L 229 116 Z "></path><path fill="rgb(194,225,235)" stroke="rgb(194,225,235)" stroke-width="1" opacity="0.23921568627450981" d="M 72 117 L 76 117 L 76 120 Q 79 118.8 78 122.5 Q 77.3 124.8 73.5 124 L 71 119.5 L 72 117 Z M 76 120 L 74 123 L 76 123 L 76 120 Z "></path><path fill="rgb(194,225,235)" stroke="rgb(194,225,235)" stroke-width="1" opacity="0.23921568627450981" d="M 108.5 117 L 109.5 119 L 108.5 117 Z "></path><path fill="rgb(194,225,235)" stroke="rgb(194,225,235)" stroke-width="1" opacity="0.23921568627450981" d="M 150.5 117 L 155 119.5 L 152.5 120 L 150.5 117 Z "></path><path fill="rgb(194,225,235)" stroke="rgb(194,225,235)" stroke-width="1" opacity="0.23921568627450981" d="M 248.5 117 L 253 119.5 L 250.5 120 L 248.5 117 Z "></path><path fill="rgb(194,225,235)" stroke="rgb(194,225,235)" stroke-width="1" opacity="0.23921568627450981" d="M 262 117 L 265 118.5 Q 263.3 116.9 261.5 120 L 260 119.5 L 262 119 L 262 117 Z "></path><path fill="rgb(194,225,235)" stroke="rgb(194,225,235)" stroke-width="1" opacity="0.23921568627450981" d="M 269.5 117 L 270 118.5 L 266.5 120 L 266.5 119 Q 270 120 269.5 117 Z "></path><path fill="rgb(194,225,235)" stroke="rgb(194,225,235)" stroke-width="1" opacity="0.23921568627450981" d="M 139.5 118 L 140 120 L 136 119.5 L 139.5 118 Z "></path><path fill="rgb(194,225,235)" stroke="rgb(194,225,235)" stroke-width="1" opacity="0.23921568627450981" d="M 220.5 118 L 219.5 120 L 220.5 118 Z "></path><path fill="rgb(194,225,235)" stroke="rgb(194,225,235)" stroke-width="1" opacity="0.23921568627450981" d="M 246.5 118 L 247 120 L 244 119.5 L 246.5 118 Z "></path><path fill="rgb(194,225,235)" stroke="rgb(194,225,235)" stroke-width="1" opacity="0.23921568627450981" d="M 254.5 118 L 258 119.5 L 255.5 120 L 254.5 118 Z "></path><path fill="rgb(194,225,235)" stroke="rgb(194,225,235)" stroke-width="1" opacity="0.23921568627450981" d="M 215.5 119 L 218 119.5 L 215.5 120 L 215.5 119 Z "></path><path fill="rgb(194,225,235)" stroke="rgb(194,225,235)" stroke-width="1" opacity="0.23921568627450981" d="M 42.5 125 L 44 125.5 L 38.5 129 L 37.5 127 L 40 128 Q 38.9 125.3 41.5 126 L 42.5 125 Z "></path></svg>